<svg width="73" height="69" viewBox="0 0 73 69" fill="none" xmlns="http://www.w3.org/2000/svg">
<rect width="73" height="69" rx="4" fill="white"/>
<line x1="36.5" y1="57.001" x2="36.5" y2="65.001" stroke="#F6F7F7"/>
<line x1="5" y1="56.501" x2="67" y2="56.501" stroke="#F6F7F7"/>
<line x1="5" y1="49.501" x2="40" y2="49.501" stroke="#C2C6CE"/>
<line x1="5" y1="60.501" x2="29" y2="60.501" stroke="#E0E2E7"/>
<line x1="5" y1="52.501" x2="40" y2="52.501" stroke="#C2C6CE"/>
<line x1="5" y1="63.501" x2="18" y2="63.501" stroke="#E0E2E7"/>
<line x1="44" y1="63.501" x2="57" y2="63.501" stroke="#E0E2E7"/>
<line x1="44" y1="60.501" x2="67" y2="60.501" stroke="#E0E2E7"/>
<rect x="5" y="4" width="10" height="10" rx="1" fill="#DDDEE0"/>
<rect x="5" y="31.001" width="62" height="15" rx="1" fill="#E0E2E7"/>
<path d="M5 42.001H67V45.001C67 45.5533 66.5523 46.001 66 46.001H6C5.44771 46.001 5 45.5533 5 45.001V42.001Z" fill="#C2C6CE"/>
<line x1="21.4531" y1="31.001" x2="21.4531" y2="46.001" stroke="#F6F7F7" stroke-width="0.90625"/>
<line x1="32.4531" y1="31.001" x2="32.4531" y2="46.001" stroke="#F6F7F7" stroke-width="0.90625"/>
<line x1="44.4531" y1="31.001" x2="44.4531" y2="46.001" stroke="#F6F7F7" stroke-width="0.90625"/>
<line x1="56.4531" y1="31.001" x2="56.4531" y2="46.001" stroke="#F6F7F7" stroke-width="0.90625"/>
<line x1="9.45312" y1="31.001" x2="9.45313" y2="46.001" stroke="#F6F7F7" stroke-width="0.90625"/>
<line x1="5.21094" y1="35.4844" x2="66.8359" y2="35.4844" stroke="#F6F7F7" stroke-width="0.90625"/>
<line x1="24" y1="5.50098" x2="51" y2="5.50098" stroke="#E0E2E7"/>
<line x1="5" y1="23.501" x2="23" y2="23.501" stroke="#E0E2E7"/>
<line x1="27" y1="23.501" x2="45" y2="23.501" stroke="#E0E2E7"/>
<line x1="49" y1="23.501" x2="67" y2="23.501" stroke="#E0E2E7"/>
<line x1="24" y1="8.50098" x2="51" y2="8.50098" stroke="#E0E2E7"/>
<line x1="5" y1="26.501" x2="18" y2="26.501" stroke="#E0E2E7"/>
<line x1="27" y1="26.501" x2="39" y2="26.501" stroke="#E0E2E7"/>
<line x1="49" y1="26.501" x2="62" y2="26.501" stroke="#E0E2E7"/>
<line x1="34" y1="11.501" x2="41" y2="11.501" stroke="#E0E2E7"/>
<path d="M5.308 20.001V17.393H6.2C6.336 17.393 6.46133 17.4036 6.576 17.425C6.69333 17.4436 6.79467 17.4783 6.88 17.529C6.968 17.5796 7.036 17.6463 7.084 17.729C7.13467 17.8116 7.16 17.9156 7.16 18.041C7.16 18.0996 7.152 18.1583 7.136 18.217C7.12 18.2756 7.09733 18.3303 7.068 18.381C7.03867 18.4316 7.00267 18.477 6.96 18.517C6.92 18.557 6.87333 18.5863 6.82 18.605V18.621C6.88667 18.637 6.948 18.6623 7.004 18.697C7.06 18.729 7.10933 18.7703 7.152 18.821C7.19467 18.8716 7.228 18.9316 7.252 19.001C7.276 19.0676 7.288 19.145 7.288 19.233C7.288 19.3663 7.26133 19.481 7.208 19.577C7.15733 19.673 7.08533 19.753 6.992 19.817C6.90133 19.8783 6.79467 19.925 6.672 19.957C6.54933 19.9863 6.41733 20.001 6.276 20.001H5.308ZM5.896 18.437H6.172C6.316 18.437 6.42 18.409 6.484 18.353C6.55067 18.297 6.584 18.2223 6.584 18.129C6.584 18.0276 6.55067 17.9556 6.484 17.913C6.41733 17.8703 6.31467 17.849 6.176 17.849H5.896V18.437ZM5.896 19.545H6.228C6.55067 19.545 6.712 19.4276 6.712 19.193C6.712 19.0783 6.672 18.997 6.592 18.949C6.512 18.8983 6.39067 18.873 6.228 18.873H5.896V19.545ZM7.72988 20.001V17.393H8.31788V20.001H7.72988ZM8.933 20.001V17.393H9.521V19.505H10.553V20.001H8.933ZM11.0033 20.001V17.393H11.5913V19.505H12.6233V20.001H11.0033ZM14.3824 20.001V17.889H13.6664V17.393H15.6904V17.889H14.9744V20.001H14.3824ZM17.0438 20.049C16.8678 20.049 16.7064 20.0183 16.5598 19.957C16.4158 19.893 16.2918 19.8023 16.1878 19.685C16.0838 19.5676 16.0024 19.425 15.9438 19.257C15.8878 19.089 15.8598 18.8983 15.8598 18.685C15.8598 18.4716 15.8878 18.2823 15.9438 18.117C16.0024 17.949 16.0838 17.809 16.1878 17.697C16.2918 17.5823 16.4158 17.4956 16.5598 17.437C16.7064 17.3756 16.8678 17.345 17.0438 17.345C17.2198 17.345 17.3798 17.3756 17.5238 17.437C17.6704 17.4956 17.7958 17.5823 17.8998 17.697C18.0038 17.8116 18.0838 17.953 18.1398 18.121C18.1984 18.2863 18.2278 18.4743 18.2278 18.685C18.2278 18.8983 18.1984 19.089 18.1398 19.257C18.0838 19.425 18.0038 19.5676 17.8998 19.685C17.7958 19.8023 17.6704 19.893 17.5238 19.957C17.3798 20.0183 17.2198 20.049 17.0438 20.049ZM17.0438 19.541C17.2224 19.541 17.3638 19.465 17.4678 19.313C17.5718 19.1583 17.6238 18.949 17.6238 18.685C17.6238 18.4236 17.5718 18.2196 17.4678 18.073C17.3638 17.9263 17.2224 17.853 17.0438 17.853C16.8651 17.853 16.7238 17.9263 16.6198 18.073C16.5158 18.2196 16.4638 18.4236 16.4638 18.685C16.4638 18.949 16.5158 19.1583 16.6198 19.313C16.7238 19.465 16.8651 19.541 17.0438 19.541Z" fill="#858D9D"/>
<path d="M28.104 20.049C27.9333 20.049 27.7627 20.0183 27.592 19.957C27.424 19.893 27.2733 19.7983 27.14 19.673L27.476 19.269C27.5693 19.349 27.672 19.4143 27.784 19.465C27.8987 19.5156 28.0107 19.541 28.12 19.541C28.2427 19.541 28.3333 19.5183 28.392 19.473C28.4533 19.4276 28.484 19.3663 28.484 19.289C28.484 19.249 28.4747 19.2143 28.456 19.185C28.44 19.1556 28.4147 19.1303 28.38 19.109C28.348 19.085 28.308 19.0636 28.26 19.045C28.2147 19.0236 28.164 19.001 28.108 18.977L27.768 18.833C27.7013 18.8063 27.636 18.7716 27.572 18.729C27.5107 18.6863 27.4547 18.637 27.404 18.581C27.356 18.5223 27.3173 18.4556 27.288 18.381C27.2587 18.3036 27.244 18.217 27.244 18.121C27.244 18.0143 27.2667 17.9143 27.312 17.821C27.3573 17.725 27.4213 17.6423 27.504 17.573C27.5867 17.501 27.684 17.445 27.796 17.405C27.9107 17.365 28.036 17.345 28.172 17.345C28.324 17.345 28.4733 17.3743 28.62 17.433C28.7693 17.4916 28.9 17.577 29.012 17.689L28.712 18.061C28.6267 17.9943 28.5413 17.9436 28.456 17.909C28.3707 17.8716 28.276 17.853 28.172 17.853C28.0707 17.853 27.9893 17.8743 27.928 17.917C27.8693 17.957 27.84 18.0143 27.84 18.089C27.84 18.129 27.8493 18.1636 27.868 18.193C27.8893 18.2196 27.9173 18.245 27.952 18.269C27.9893 18.2903 28.032 18.3116 28.08 18.333C28.128 18.3516 28.18 18.373 28.236 18.397L28.572 18.533C28.732 18.597 28.8573 18.685 28.948 18.797C29.0413 18.909 29.088 19.057 29.088 19.241C29.088 19.3503 29.0653 19.4543 29.02 19.553C28.9773 19.649 28.9133 19.7343 28.828 19.809C28.7453 19.881 28.6427 19.9396 28.52 19.985C28.3973 20.0276 28.2587 20.049 28.104 20.049ZM29.5307 20.001V17.393H30.1187V18.397H31.0187V17.393H31.6107V20.001H31.0187V18.913H30.1187V20.001H29.5307ZM32.226 20.001V17.393H32.814V20.001H32.226ZM33.4291 20.001V17.393H34.3251C34.4691 17.393 34.6038 17.4076 34.7291 17.437C34.8544 17.4636 34.9638 17.5103 35.0571 17.577C35.1504 17.641 35.2238 17.7276 35.2771 17.837C35.3331 17.9436 35.3611 18.0756 35.3611 18.233C35.3611 18.385 35.3331 18.517 35.2771 18.629C35.2238 18.741 35.1504 18.833 35.0571 18.905C34.9638 18.977 34.8558 19.0303 34.7331 19.065C34.6104 19.0996 34.4798 19.117 34.3411 19.117H34.0171V20.001H33.4291ZM34.0171 18.649H34.3051C34.6251 18.649 34.7851 18.5103 34.7851 18.233C34.7851 18.097 34.7424 18.001 34.6571 17.945C34.5718 17.889 34.4491 17.861 34.2891 17.861H34.0171V18.649ZM37.1207 20.001V17.889H36.4047V17.393H38.4287V17.889H37.7127V20.001H37.1207ZM39.7821 20.049C39.6061 20.049 39.4447 20.0183 39.2981 19.957C39.1541 19.893 39.0301 19.8023 38.9261 19.685C38.8221 19.5676 38.7407 19.425 38.6821 19.257C38.6261 19.089 38.5981 18.8983 38.5981 18.685C38.5981 18.4716 38.6261 18.2823 38.6821 18.117C38.7407 17.949 38.8221 17.809 38.9261 17.697C39.0301 17.5823 39.1541 17.4956 39.2981 17.437C39.4447 17.3756 39.6061 17.345 39.7821 17.345C39.9581 17.345 40.1181 17.3756 40.2621 17.437C40.4087 17.4956 40.5341 17.5823 40.6381 17.697C40.7421 17.8116 40.8221 17.953 40.8781 18.121C40.9367 18.2863 40.9661 18.4743 40.9661 18.685C40.9661 18.8983 40.9367 19.089 40.8781 19.257C40.8221 19.425 40.7421 19.5676 40.6381 19.685C40.5341 19.8023 40.4087 19.893 40.2621 19.957C40.1181 20.0183 39.9581 20.049 39.7821 20.049ZM39.7821 19.541C39.9607 19.541 40.1021 19.465 40.2061 19.313C40.3101 19.1583 40.3621 18.949 40.3621 18.685C40.3621 18.4236 40.3101 18.2196 40.2061 18.073C40.1021 17.9263 39.9607 17.853 39.7821 17.853C39.6034 17.853 39.4621 17.9263 39.3581 18.073C39.2541 18.2196 39.2021 18.4236 39.2021 18.685C39.2021 18.949 39.2541 19.1583 39.3581 19.313C39.4621 19.465 39.6034 19.541 39.7821 19.541Z" fill="#858D9D"/>
<path d="M45.276 51.197V50.729H45.536C45.7893 50.729 45.9427 50.6343 45.996 50.445H45.276V50.173L45.572 50.149H45.992C45.9627 50.0663 45.9093 50.009 45.832 49.977C45.7573 49.945 45.6587 49.929 45.536 49.929H45.276V49.461H46.86V49.757H46.332C46.46 49.8476 46.5413 49.9783 46.576 50.149H46.86V50.445H46.58C46.5587 50.6103 46.5067 50.7463 46.424 50.853C46.3413 50.9596 46.236 51.041 46.108 51.097L46.792 52.001H46.132L45.56 51.197H45.276ZM48.1941 52.001V51.525H48.7461V50.057H48.2701V49.693C48.4087 49.6663 48.5261 49.6343 48.6221 49.597C48.7181 49.5596 48.8114 49.5143 48.9021 49.461H49.3341V51.525H49.8101V52.001H48.1941ZM51.0833 52.049C50.9473 52.049 50.8233 52.021 50.7113 51.965C50.5993 51.9063 50.5033 51.821 50.4233 51.709C50.346 51.597 50.2847 51.4583 50.2393 51.293C50.1967 51.1276 50.1753 50.937 50.1753 50.721C50.1753 50.505 50.1967 50.3156 50.2393 50.153C50.2847 49.9903 50.346 49.8543 50.4233 49.745C50.5033 49.633 50.5993 49.5503 50.7113 49.497C50.8233 49.441 50.9473 49.413 51.0833 49.413C51.2193 49.413 51.3433 49.441 51.4553 49.497C51.5673 49.5503 51.662 49.633 51.7393 49.745C51.8193 49.8543 51.8807 49.9903 51.9233 50.153C51.9687 50.3156 51.9913 50.505 51.9913 50.721C51.9913 50.937 51.9687 51.1276 51.9233 51.293C51.8807 51.4583 51.8193 51.597 51.7393 51.709C51.662 51.821 51.5673 51.9063 51.4553 51.965C51.3433 52.021 51.2193 52.049 51.0833 52.049ZM51.0833 51.593C51.134 51.593 51.1807 51.581 51.2233 51.557C51.266 51.5303 51.3033 51.4836 51.3353 51.417C51.3673 51.3503 51.3913 51.261 51.4073 51.149C51.426 51.037 51.4353 50.8943 51.4353 50.721C51.4353 50.5476 51.426 50.4063 51.4073 50.297C51.3913 50.185 51.3673 50.0983 51.3353 50.037C51.3033 49.973 51.266 49.929 51.2233 49.905C51.1807 49.881 51.134 49.869 51.0833 49.869C51.0353 49.869 50.99 49.881 50.9473 49.905C50.9047 49.929 50.8673 49.973 50.8353 50.037C50.8033 50.0983 50.778 50.185 50.7593 50.297C50.7407 50.4063 50.7313 50.5476 50.7313 50.721C50.7313 50.8943 50.7407 51.037 50.7593 51.149C50.778 51.261 50.8033 51.3503 50.8353 51.417C50.8673 51.4836 50.9047 51.5303 50.9473 51.557C50.99 51.581 51.0353 51.593 51.0833 51.593ZM53.1966 52.049C53.0606 52.049 52.9366 52.021 52.8246 51.965C52.7126 51.9063 52.6166 51.821 52.5366 51.709C52.4593 51.597 52.398 51.4583 52.3526 51.293C52.31 51.1276 52.2886 50.937 52.2886 50.721C52.2886 50.505 52.31 50.3156 52.3526 50.153C52.398 49.9903 52.4593 49.8543 52.5366 49.745C52.6166 49.633 52.7126 49.5503 52.8246 49.497C52.9366 49.441 53.0606 49.413 53.1966 49.413C53.3326 49.413 53.4566 49.441 53.5686 49.497C53.6806 49.5503 53.7753 49.633 53.8526 49.745C53.9326 49.8543 53.994 49.9903 54.0366 50.153C54.082 50.3156 54.1046 50.505 54.1046 50.721C54.1046 50.937 54.082 51.1276 54.0366 51.293C53.994 51.4583 53.9326 51.597 53.8526 51.709C53.7753 51.821 53.6806 51.9063 53.5686 51.965C53.4566 52.021 53.3326 52.049 53.1966 52.049ZM53.1966 51.593C53.2473 51.593 53.294 51.581 53.3366 51.557C53.3793 51.5303 53.4166 51.4836 53.4486 51.417C53.4806 51.3503 53.5046 51.261 53.5206 51.149C53.5393 51.037 53.5486 50.8943 53.5486 50.721C53.5486 50.5476 53.5393 50.4063 53.5206 50.297C53.5046 50.185 53.4806 50.0983 53.4486 50.037C53.4166 49.973 53.3793 49.929 53.3366 49.905C53.294 49.881 53.2473 49.869 53.1966 49.869C53.1486 49.869 53.1033 49.881 53.0606 49.905C53.018 49.929 52.9806 49.973 52.9486 50.037C52.9166 50.0983 52.8913 50.185 52.8726 50.297C52.854 50.4063 52.8446 50.5476 52.8446 50.721C52.8446 50.8943 52.854 51.037 52.8726 51.149C52.8913 51.261 52.9166 51.3503 52.9486 51.417C52.9806 51.4836 53.018 51.5303 53.0606 51.557C53.1033 51.581 53.1486 51.593 53.1966 51.593ZM55.3099 52.049C55.1739 52.049 55.0499 52.021 54.9379 51.965C54.8259 51.9063 54.7299 51.821 54.6499 51.709C54.5726 51.597 54.5112 51.4583 54.4659 51.293C54.4232 51.1276 54.4019 50.937 54.4019 50.721C54.4019 50.505 54.4232 50.3156 54.4659 50.153C54.5112 49.9903 54.5726 49.8543 54.6499 49.745C54.7299 49.633 54.8259 49.5503 54.9379 49.497C55.0499 49.441 55.1739 49.413 55.3099 49.413C55.4459 49.413 55.5699 49.441 55.6819 49.497C55.7939 49.5503 55.8886 49.633 55.9659 49.745C56.0459 49.8543 56.1072 49.9903 56.1499 50.153C56.1952 50.3156 56.2179 50.505 56.2179 50.721C56.2179 50.937 56.1952 51.1276 56.1499 51.293C56.1072 51.4583 56.0459 51.597 55.9659 51.709C55.8886 51.821 55.7939 51.9063 55.6819 51.965C55.5699 52.021 55.4459 52.049 55.3099 52.049ZM55.3099 51.593C55.3606 51.593 55.4072 51.581 55.4499 51.557C55.4926 51.5303 55.5299 51.4836 55.5619 51.417C55.5939 51.3503 55.6179 51.261 55.6339 51.149C55.6526 51.037 55.6619 50.8943 55.6619 50.721C55.6619 50.5476 55.6526 50.4063 55.6339 50.297C55.6179 50.185 55.5939 50.0983 55.5619 50.037C55.5299 49.973 55.4926 49.929 55.4499 49.905C55.4072 49.881 55.3606 49.869 55.3099 49.869C55.2619 49.869 55.2166 49.881 55.1739 49.905C55.1312 49.929 55.0939 49.973 55.0619 50.037C55.0299 50.0983 55.0046 50.185 54.9859 50.297C54.9672 50.4063 54.9579 50.5476 54.9579 50.721C54.9579 50.8943 54.9672 51.037 54.9859 51.149C55.0046 51.261 55.0299 51.3503 55.0619 51.417C55.0939 51.4836 55.1312 51.5303 55.1739 51.557C55.2166 51.581 55.2619 51.593 55.3099 51.593ZM56.9672 52.049C56.8659 52.049 56.7805 52.0143 56.7112 51.945C56.6445 51.873 56.6112 51.785 56.6112 51.681C56.6112 51.5743 56.6445 51.4863 56.7112 51.417C56.7805 51.345 56.8659 51.309 56.9672 51.309C57.0685 51.309 57.1525 51.345 57.2192 51.417C57.2885 51.4863 57.3232 51.5743 57.3232 51.681C57.3232 51.785 57.2885 51.873 57.2192 51.945C57.1525 52.0143 57.0685 52.049 56.9672 52.049ZM58.6224 52.049C58.4864 52.049 58.3624 52.021 58.2504 51.965C58.1384 51.9063 58.0424 51.821 57.9624 51.709C57.8851 51.597 57.8237 51.4583 57.7784 51.293C57.7357 51.1276 57.7144 50.937 57.7144 50.721C57.7144 50.505 57.7357 50.3156 57.7784 50.153C57.8237 49.9903 57.8851 49.8543 57.9624 49.745C58.0424 49.633 58.1384 49.5503 58.2504 49.497C58.3624 49.441 58.4864 49.413 58.6224 49.413C58.7584 49.413 58.8824 49.441 58.9944 49.497C59.1064 49.5503 59.2011 49.633 59.2784 49.745C59.3584 49.8543 59.4197 49.9903 59.4624 50.153C59.5077 50.3156 59.5304 50.505 59.5304 50.721C59.5304 50.937 59.5077 51.1276 59.4624 51.293C59.4197 51.4583 59.3584 51.597 59.2784 51.709C59.2011 51.821 59.1064 51.9063 58.9944 51.965C58.8824 52.021 58.7584 52.049 58.6224 52.049ZM58.6224 51.593C58.6731 51.593 58.7197 51.581 58.7624 51.557C58.8051 51.5303 58.8424 51.4836 58.8744 51.417C58.9064 51.3503 58.9304 51.261 58.9464 51.149C58.9651 51.037 58.9744 50.8943 58.9744 50.721C58.9744 50.5476 58.9651 50.4063 58.9464 50.297C58.9304 50.185 58.9064 50.0983 58.8744 50.037C58.8424 49.973 58.8051 49.929 58.7624 49.905C58.7197 49.881 58.6731 49.869 58.6224 49.869C58.5744 49.869 58.5291 49.881 58.4864 49.905C58.4437 49.929 58.4064 49.973 58.3744 50.037C58.3424 50.0983 58.3171 50.185 58.2984 50.297C58.2797 50.4063 58.2704 50.5476 58.2704 50.721C58.2704 50.8943 58.2797 51.037 58.2984 51.149C58.3171 51.261 58.3424 51.3503 58.3744 51.417C58.4064 51.4836 58.4437 51.5303 58.4864 51.557C58.5291 51.581 58.5744 51.593 58.6224 51.593ZM60.7357 52.049C60.5997 52.049 60.4757 52.021 60.3637 51.965C60.2517 51.9063 60.1557 51.821 60.0757 51.709C59.9984 51.597 59.937 51.4583 59.8917 51.293C59.849 51.1276 59.8277 50.937 59.8277 50.721C59.8277 50.505 59.849 50.3156 59.8917 50.153C59.937 49.9903 59.9984 49.8543 60.0757 49.745C60.1557 49.633 60.2517 49.5503 60.3637 49.497C60.4757 49.441 60.5997 49.413 60.7357 49.413C60.8717 49.413 60.9957 49.441 61.1077 49.497C61.2197 49.5503 61.3144 49.633 61.3917 49.745C61.4717 49.8543 61.533 49.9903 61.5757 50.153C61.621 50.3156 61.6437 50.505 61.6437 50.721C61.6437 50.937 61.621 51.1276 61.5757 51.293C61.533 51.4583 61.4717 51.597 61.3917 51.709C61.3144 51.821 61.2197 51.9063 61.1077 51.965C60.9957 52.021 60.8717 52.049 60.7357 52.049ZM60.7357 51.593C60.7864 51.593 60.833 51.581 60.8757 51.557C60.9184 51.5303 60.9557 51.4836 60.9877 51.417C61.0197 51.3503 61.0437 51.261 61.0597 51.149C61.0784 51.037 61.0877 50.8943 61.0877 50.721C61.0877 50.5476 61.0784 50.4063 61.0597 50.297C61.0437 50.185 61.0197 50.0983 60.9877 50.037C60.9557 49.973 60.9184 49.929 60.8757 49.905C60.833 49.881 60.7864 49.869 60.7357 49.869C60.6877 49.869 60.6424 49.881 60.5997 49.905C60.557 49.929 60.5197 49.973 60.4877 50.037C60.4557 50.0983 60.4304 50.185 60.4117 50.297C60.393 50.4063 60.3837 50.5476 60.3837 50.721C60.3837 50.8943 60.393 51.037 60.4117 51.149C60.4304 51.261 60.4557 51.3503 60.4877 51.417C60.5197 51.4836 60.557 51.5303 60.5997 51.557C60.6424 51.581 60.6877 51.593 60.7357 51.593Z" fill="#858D9D"/>
</svg>
