<svg width="73" height="94" viewBox="0 0 73 94" fill="none" xmlns="http://www.w3.org/2000/svg">
<rect width="72.5" height="94" rx="4" fill="white"/>
<path d="M49.276 75.196V74.728H49.536C49.7893 74.728 49.9427 74.6333 49.996 74.444H49.276V74.172L49.572 74.148H49.992C49.9627 74.0653 49.9093 74.008 49.832 73.976C49.7573 73.944 49.6587 73.928 49.536 73.928H49.276V73.46H50.86V73.756H50.332C50.46 73.8467 50.5413 73.9773 50.576 74.148H50.86V74.444H50.58C50.5587 74.6093 50.5067 74.7453 50.424 74.852C50.3413 74.9587 50.236 75.04 50.108 75.096L50.792 76H50.132L49.56 75.196H49.276ZM52.1941 76V75.524H52.7461V74.056H52.2701V73.692C52.4087 73.6653 52.5261 73.6333 52.6221 73.596C52.7181 73.5587 52.8114 73.5133 52.9021 73.46H53.3341V75.524H53.8101V76H52.1941ZM55.0833 76.048C54.9473 76.048 54.8233 76.02 54.7113 75.964C54.5993 75.9053 54.5033 75.82 54.4233 75.708C54.346 75.596 54.2847 75.4573 54.2393 75.292C54.1967 75.1267 54.1753 74.936 54.1753 74.72C54.1753 74.504 54.1967 74.3147 54.2393 74.152C54.2847 73.9893 54.346 73.8533 54.4233 73.744C54.5033 73.632 54.5993 73.5493 54.7113 73.496C54.8233 73.44 54.9473 73.412 55.0833 73.412C55.2193 73.412 55.3433 73.44 55.4553 73.496C55.5673 73.5493 55.662 73.632 55.7393 73.744C55.8193 73.8533 55.8807 73.9893 55.9233 74.152C55.9687 74.3147 55.9913 74.504 55.9913 74.72C55.9913 74.936 55.9687 75.1267 55.9233 75.292C55.8807 75.4573 55.8193 75.596 55.7393 75.708C55.662 75.82 55.5673 75.9053 55.4553 75.964C55.3433 76.02 55.2193 76.048 55.0833 76.048ZM55.0833 75.592C55.134 75.592 55.1807 75.58 55.2233 75.556C55.266 75.5293 55.3033 75.4827 55.3353 75.416C55.3673 75.3493 55.3913 75.26 55.4073 75.148C55.426 75.036 55.4353 74.8933 55.4353 74.72C55.4353 74.5467 55.426 74.4053 55.4073 74.296C55.3913 74.184 55.3673 74.0973 55.3353 74.036C55.3033 73.972 55.266 73.928 55.2233 73.904C55.1807 73.88 55.134 73.868 55.0833 73.868C55.0353 73.868 54.99 73.88 54.9473 73.904C54.9047 73.928 54.8673 73.972 54.8353 74.036C54.8033 74.0973 54.778 74.184 54.7593 74.296C54.7407 74.4053 54.7313 74.5467 54.7313 74.72C54.7313 74.8933 54.7407 75.036 54.7593 75.148C54.778 75.26 54.8033 75.3493 54.8353 75.416C54.8673 75.4827 54.9047 75.5293 54.9473 75.556C54.99 75.58 55.0353 75.592 55.0833 75.592ZM57.1966 76.048C57.0606 76.048 56.9366 76.02 56.8246 75.964C56.7126 75.9053 56.6166 75.82 56.5366 75.708C56.4593 75.596 56.398 75.4573 56.3526 75.292C56.31 75.1267 56.2886 74.936 56.2886 74.72C56.2886 74.504 56.31 74.3147 56.3526 74.152C56.398 73.9893 56.4593 73.8533 56.5366 73.744C56.6166 73.632 56.7126 73.5493 56.8246 73.496C56.9366 73.44 57.0606 73.412 57.1966 73.412C57.3326 73.412 57.4566 73.44 57.5686 73.496C57.6806 73.5493 57.7753 73.632 57.8526 73.744C57.9326 73.8533 57.994 73.9893 58.0366 74.152C58.082 74.3147 58.1046 74.504 58.1046 74.72C58.1046 74.936 58.082 75.1267 58.0366 75.292C57.994 75.4573 57.9326 75.596 57.8526 75.708C57.7753 75.82 57.6806 75.9053 57.5686 75.964C57.4566 76.02 57.3326 76.048 57.1966 76.048ZM57.1966 75.592C57.2473 75.592 57.294 75.58 57.3366 75.556C57.3793 75.5293 57.4166 75.4827 57.4486 75.416C57.4806 75.3493 57.5046 75.26 57.5206 75.148C57.5393 75.036 57.5486 74.8933 57.5486 74.72C57.5486 74.5467 57.5393 74.4053 57.5206 74.296C57.5046 74.184 57.4806 74.0973 57.4486 74.036C57.4166 73.972 57.3793 73.928 57.3366 73.904C57.294 73.88 57.2473 73.868 57.1966 73.868C57.1486 73.868 57.1033 73.88 57.0606 73.904C57.018 73.928 56.9806 73.972 56.9486 74.036C56.9166 74.0973 56.8913 74.184 56.8726 74.296C56.854 74.4053 56.8446 74.5467 56.8446 74.72C56.8446 74.8933 56.854 75.036 56.8726 75.148C56.8913 75.26 56.9166 75.3493 56.9486 75.416C56.9806 75.4827 57.018 75.5293 57.0606 75.556C57.1033 75.58 57.1486 75.592 57.1966 75.592ZM59.3099 76.048C59.1739 76.048 59.0499 76.02 58.9379 75.964C58.8259 75.9053 58.7299 75.82 58.6499 75.708C58.5726 75.596 58.5112 75.4573 58.4659 75.292C58.4232 75.1267 58.4019 74.936 58.4019 74.72C58.4019 74.504 58.4232 74.3147 58.4659 74.152C58.5112 73.9893 58.5726 73.8533 58.6499 73.744C58.7299 73.632 58.8259 73.5493 58.9379 73.496C59.0499 73.44 59.1739 73.412 59.3099 73.412C59.4459 73.412 59.5699 73.44 59.6819 73.496C59.7939 73.5493 59.8886 73.632 59.9659 73.744C60.0459 73.8533 60.1072 73.9893 60.1499 74.152C60.1952 74.3147 60.2179 74.504 60.2179 74.72C60.2179 74.936 60.1952 75.1267 60.1499 75.292C60.1072 75.4573 60.0459 75.596 59.9659 75.708C59.8886 75.82 59.7939 75.9053 59.6819 75.964C59.5699 76.02 59.4459 76.048 59.3099 76.048ZM59.3099 75.592C59.3606 75.592 59.4072 75.58 59.4499 75.556C59.4926 75.5293 59.5299 75.4827 59.5619 75.416C59.5939 75.3493 59.6179 75.26 59.6339 75.148C59.6526 75.036 59.6619 74.8933 59.6619 74.72C59.6619 74.5467 59.6526 74.4053 59.6339 74.296C59.6179 74.184 59.5939 74.0973 59.5619 74.036C59.5299 73.972 59.4926 73.928 59.4499 73.904C59.4072 73.88 59.3606 73.868 59.3099 73.868C59.2619 73.868 59.2166 73.88 59.1739 73.904C59.1312 73.928 59.0939 73.972 59.0619 74.036C59.0299 74.0973 59.0046 74.184 58.9859 74.296C58.9672 74.4053 58.9579 74.5467 58.9579 74.72C58.9579 74.8933 58.9672 75.036 58.9859 75.148C59.0046 75.26 59.0299 75.3493 59.0619 75.416C59.0939 75.4827 59.1312 75.5293 59.1739 75.556C59.2166 75.58 59.2619 75.592 59.3099 75.592ZM60.9672 76.048C60.8659 76.048 60.7805 76.0133 60.7112 75.944C60.6445 75.872 60.6112 75.784 60.6112 75.68C60.6112 75.5733 60.6445 75.4853 60.7112 75.416C60.7805 75.344 60.8659 75.308 60.9672 75.308C61.0685 75.308 61.1525 75.344 61.2192 75.416C61.2885 75.4853 61.3232 75.5733 61.3232 75.68C61.3232 75.784 61.2885 75.872 61.2192 75.944C61.1525 76.0133 61.0685 76.048 60.9672 76.048ZM62.6224 76.048C62.4864 76.048 62.3624 76.02 62.2504 75.964C62.1384 75.9053 62.0424 75.82 61.9624 75.708C61.8851 75.596 61.8237 75.4573 61.7784 75.292C61.7357 75.1267 61.7144 74.936 61.7144 74.72C61.7144 74.504 61.7357 74.3147 61.7784 74.152C61.8237 73.9893 61.8851 73.8533 61.9624 73.744C62.0424 73.632 62.1384 73.5493 62.2504 73.496C62.3624 73.44 62.4864 73.412 62.6224 73.412C62.7584 73.412 62.8824 73.44 62.9944 73.496C63.1064 73.5493 63.2011 73.632 63.2784 73.744C63.3584 73.8533 63.4197 73.9893 63.4624 74.152C63.5077 74.3147 63.5304 74.504 63.5304 74.72C63.5304 74.936 63.5077 75.1267 63.4624 75.292C63.4197 75.4573 63.3584 75.596 63.2784 75.708C63.2011 75.82 63.1064 75.9053 62.9944 75.964C62.8824 76.02 62.7584 76.048 62.6224 76.048ZM62.6224 75.592C62.6731 75.592 62.7197 75.58 62.7624 75.556C62.8051 75.5293 62.8424 75.4827 62.8744 75.416C62.9064 75.3493 62.9304 75.26 62.9464 75.148C62.9651 75.036 62.9744 74.8933 62.9744 74.72C62.9744 74.5467 62.9651 74.4053 62.9464 74.296C62.9304 74.184 62.9064 74.0973 62.8744 74.036C62.8424 73.972 62.8051 73.928 62.7624 73.904C62.7197 73.88 62.6731 73.868 62.6224 73.868C62.5744 73.868 62.5291 73.88 62.4864 73.904C62.4437 73.928 62.4064 73.972 62.3744 74.036C62.3424 74.0973 62.3171 74.184 62.2984 74.296C62.2797 74.4053 62.2704 74.5467 62.2704 74.72C62.2704 74.8933 62.2797 75.036 62.2984 75.148C62.3171 75.26 62.3424 75.3493 62.3744 75.416C62.4064 75.4827 62.4437 75.5293 62.4864 75.556C62.5291 75.58 62.5744 75.592 62.6224 75.592ZM64.7357 76.048C64.5997 76.048 64.4757 76.02 64.3637 75.964C64.2517 75.9053 64.1557 75.82 64.0757 75.708C63.9984 75.596 63.937 75.4573 63.8917 75.292C63.849 75.1267 63.8277 74.936 63.8277 74.72C63.8277 74.504 63.849 74.3147 63.8917 74.152C63.937 73.9893 63.9984 73.8533 64.0757 73.744C64.1557 73.632 64.2517 73.5493 64.3637 73.496C64.4757 73.44 64.5997 73.412 64.7357 73.412C64.8717 73.412 64.9957 73.44 65.1077 73.496C65.2197 73.5493 65.3144 73.632 65.3917 73.744C65.4717 73.8533 65.533 73.9893 65.5757 74.152C65.621 74.3147 65.6437 74.504 65.6437 74.72C65.6437 74.936 65.621 75.1267 65.5757 75.292C65.533 75.4573 65.4717 75.596 65.3917 75.708C65.3144 75.82 65.2197 75.9053 65.1077 75.964C64.9957 76.02 64.8717 76.048 64.7357 76.048ZM64.7357 75.592C64.7864 75.592 64.833 75.58 64.8757 75.556C64.9184 75.5293 64.9557 75.4827 64.9877 75.416C65.0197 75.3493 65.0437 75.26 65.0597 75.148C65.0784 75.036 65.0877 74.8933 65.0877 74.72C65.0877 74.5467 65.0784 74.4053 65.0597 74.296C65.0437 74.184 65.0197 74.0973 64.9877 74.036C64.9557 73.972 64.9184 73.928 64.8757 73.904C64.833 73.88 64.7864 73.868 64.7357 73.868C64.6877 73.868 64.6424 73.88 64.5997 73.904C64.557 73.928 64.5197 73.972 64.4877 74.036C64.4557 74.0973 64.4304 74.184 64.4117 74.296C64.393 74.4053 64.3837 74.5467 64.3837 74.72C64.3837 74.8933 64.393 75.036 64.4117 75.148C64.4304 75.26 64.4557 75.3493 64.4877 75.416C64.5197 75.4827 64.557 75.5293 64.5997 75.556C64.6424 75.58 64.6877 75.592 64.7357 75.592Z" fill="#858D9D"/>
<rect x="5" y="7" width="10" height="10" rx="1" fill="#DDDEE0"/>
<rect x="5" y="40" width="62" height="15" rx="1" fill="#E0E2E7"/>
<path d="M5 51H67V54C67 54.5523 66.5523 55 66 55H6C5.44771 55 5 54.5523 5 54V51Z" fill="#C2C6CE"/>
<rect x="5" y="57" width="62" height="13" rx="1" fill="#E0E2E7"/>
<line x1="17" y1="8.5" x2="33" y2="8.5" stroke="#E0E2E7"/>
<line x1="40" y1="8.5" x2="47" y2="8.5" stroke="#C2C6CE"/>
<line x1="40" y1="14.5" x2="47" y2="14.5" stroke="#E0E2E7"/>
<line x1="50" y1="8.5" x2="57" y2="8.5" stroke="#C2C6CE"/>
<line x1="50" y1="14.5" x2="57" y2="14.5" stroke="#E0E2E7"/>
<line x1="60" y1="8.5" x2="67" y2="8.5" stroke="#C2C6CE"/>
<line x1="60" y1="14.5" x2="67" y2="14.5" stroke="#E0E2E7"/>
<line x1="36.5" y1="7" x2="36.5" y2="36" stroke="#F0F1F3"/>
<line x1="36.5" y1="79" x2="36.5" y2="87" stroke="#F6F7F7"/>
<line x1="20.5" y1="40" x2="20.5" y2="55" stroke="#F6F7F7"/>
<line x1="33.5" y1="40" x2="33.5" y2="55" stroke="#F6F7F7"/>
<line x1="45.5" y1="40" x2="45.5" y2="55" stroke="#F6F7F7"/>
<line x1="56.5" y1="40" x2="56.5" y2="55" stroke="#F6F7F7"/>
<line x1="25.5" y1="57" x2="25.5" y2="70" stroke="#F6F7F7"/>
<line x1="41.5" y1="57" x2="41.5" y2="70" stroke="#F6F7F7"/>
<line x1="57.5" y1="57" x2="57.5" y2="70" stroke="#F6F7F7"/>
<line x1="9.5" y1="40" x2="9.5" y2="55" stroke="#F6F7F7"/>
<line x1="9.5" y1="57" x2="9.5" y2="70" stroke="#F6F7F7"/>
<line x1="5" y1="34.5" x2="16" y2="34.5" stroke="#E0E2E7"/>
<line x1="40" y1="34.5" x2="51" y2="34.5" stroke="#E0E2E7"/>
<line x1="5" y1="31.5" x2="33" y2="31.5" stroke="#E0E2E7"/>
<line x1="40" y1="31.5" x2="67" y2="31.5" stroke="#E0E2E7"/>
<line x1="5" y1="21.5" x2="67" y2="21.5" stroke="#F0F1F3"/>
<line x1="5" y1="79.5" x2="67" y2="79.5" stroke="#F6F7F7"/>
<line x1="5" y1="73.5" x2="40" y2="73.5" stroke="#C2C6CE"/>
<line x1="5" y1="83.5" x2="29" y2="83.5" stroke="#E0E2E7"/>
<line x1="5" y1="43.5" x2="67" y2="43.5" stroke="#F6F7F7"/>
<line x1="5" y1="60.5" x2="67" y2="60.5" stroke="#F6F7F7"/>
<line x1="17" y1="14.5" x2="33" y2="14.5" stroke="#E0E2E7"/>
<line x1="17" y1="11.5" x2="33" y2="11.5" stroke="#E0E2E7"/>
<line x1="40" y1="11" x2="44" y2="11" stroke="#C2C6CE"/>
<line x1="40" y1="17" x2="44" y2="17" stroke="#E0E2E7"/>
<line x1="50" y1="11" x2="54" y2="11" stroke="#C2C6CE"/>
<line x1="50" y1="17" x2="54" y2="17" stroke="#E0E2E7"/>
<line x1="60" y1="11" x2="64" y2="11" stroke="#C2C6CE"/>
<line x1="60" y1="17" x2="64" y2="17" stroke="#E0E2E7"/>
<line x1="5" y1="76.5" x2="40" y2="76.5" stroke="#C2C6CE"/>
<line x1="5" y1="86.5" x2="18" y2="86.5" stroke="#E0E2E7"/>
<line x1="44" y1="86.5" x2="57" y2="86.5" stroke="#E0E2E7"/>
<line x1="44" y1="83.5" x2="67" y2="83.5" stroke="#E0E2E7"/>
<line x1="17" y1="17.5" x2="23" y2="17.5" stroke="#E0E2E7"/>
<path d="M5.308 28V25.392H6.2C6.38133 25.392 6.544 25.412 6.688 25.452C6.832 25.4893 6.94667 25.5547 7.032 25.648C7.11733 25.7413 7.16 25.872 7.16 26.04C7.16 26.1547 7.12933 26.268 7.068 26.38C7.00933 26.4893 6.92667 26.564 6.82 26.604V26.62C6.95333 26.6547 7.064 26.7227 7.152 26.824C7.24267 26.9227 7.288 27.0587 7.288 27.232C7.288 27.4107 7.24267 27.556 7.152 27.668C7.06133 27.78 6.94 27.864 6.788 27.92C6.636 27.9733 6.46533 28 6.276 28H5.308ZM5.896 26.436H6.172C6.316 26.436 6.42 26.408 6.484 26.352C6.55067 26.296 6.584 26.2213 6.584 26.128C6.584 26.0267 6.55067 25.9547 6.484 25.912C6.41733 25.8693 6.31467 25.848 6.176 25.848H5.896V26.436ZM5.896 27.544H6.228C6.55067 27.544 6.712 27.4267 6.712 27.192C6.712 27.0773 6.672 26.996 6.592 26.948C6.512 26.8973 6.39067 26.872 6.228 26.872H5.896V27.544ZM7.72988 28V25.392H8.31788V28H7.72988ZM8.933 28V25.392H9.521V27.504H10.553V28H8.933ZM11.0033 28V25.392H11.5913V27.504H12.6233V28H11.0033ZM14.3824 28V25.888H13.6664V25.392H15.6904V25.888H14.9744V28H14.3824ZM17.0438 28.048C16.8091 28.048 16.6024 27.9933 16.4238 27.884C16.2478 27.7747 16.1091 27.6187 16.0078 27.416C15.9091 27.2107 15.8598 26.9667 15.8598 26.684C15.8598 26.3987 15.9091 26.1573 16.0078 25.96C16.1091 25.76 16.2478 25.608 16.4238 25.504C16.6024 25.3973 16.8091 25.344 17.0438 25.344C17.2784 25.344 17.4838 25.3973 17.6598 25.504C17.8384 25.608 17.9771 25.76 18.0758 25.96C18.1771 26.16 18.2278 26.4013 18.2278 26.684C18.2278 26.9667 18.1771 27.2107 18.0758 27.416C17.9771 27.6187 17.8384 27.7747 17.6598 27.884C17.4838 27.9933 17.2784 28.048 17.0438 28.048ZM17.0438 27.54C17.2224 27.54 17.3638 27.4627 17.4678 27.308C17.5718 27.1533 17.6238 26.9453 17.6238 26.684C17.6238 26.4227 17.5718 26.2187 17.4678 26.072C17.3638 25.9253 17.2224 25.852 17.0438 25.852C16.8651 25.852 16.7238 25.9253 16.6198 26.072C16.5158 26.2187 16.4638 26.4227 16.4638 26.684C16.4638 26.9453 16.5158 27.1533 16.6198 27.308C16.7238 27.4627 16.8651 27.54 17.0438 27.54Z" fill="#858D9D"/>
<path d="M41.104 28.048C40.9333 28.048 40.7627 28.016 40.592 27.952C40.424 27.888 40.2733 27.7947 40.14 27.672L40.476 27.268C40.5693 27.348 40.6733 27.4133 40.788 27.464C40.9027 27.5147 41.0133 27.54 41.12 27.54C41.2427 27.54 41.3333 27.5173 41.392 27.472C41.4533 27.4267 41.484 27.3653 41.484 27.288C41.484 27.2053 41.4493 27.1453 41.38 27.108C41.3133 27.068 41.2227 27.024 41.108 26.976L40.768 26.832C40.68 26.7947 40.596 26.7453 40.516 26.684C40.436 26.62 40.3707 26.5413 40.32 26.448C40.2693 26.3547 40.244 26.2453 40.244 26.12C40.244 25.976 40.2827 25.8453 40.36 25.728C40.44 25.6107 40.5493 25.5173 40.688 25.448C40.8293 25.3787 40.9907 25.344 41.172 25.344C41.3213 25.344 41.4707 25.3733 41.62 25.432C41.7693 25.4907 41.9 25.576 42.012 25.688L41.712 26.06C41.6267 25.9933 41.5413 25.9427 41.456 25.908C41.3707 25.8707 41.276 25.852 41.172 25.852C41.0707 25.852 40.9893 25.8733 40.928 25.916C40.8693 25.956 40.84 26.0133 40.84 26.088C40.84 26.168 40.8773 26.228 40.952 26.268C41.0293 26.308 41.124 26.3507 41.236 26.396L41.572 26.532C41.7293 26.596 41.8547 26.684 41.948 26.796C42.0413 26.908 42.088 27.056 42.088 27.24C42.088 27.384 42.0493 27.5173 41.972 27.64C41.8947 27.7627 41.7827 27.8613 41.636 27.936C41.4893 28.0107 41.312 28.048 41.104 28.048ZM42.5307 28V25.392H43.1187V26.396H44.0187V25.392H44.6107V28H44.0187V26.912H43.1187V28H42.5307ZM45.226 28V25.392H45.814V28H45.226ZM46.4291 28V25.392H47.3251C47.5171 25.392 47.6904 25.4187 47.8451 25.472C48.0024 25.5227 48.1278 25.6093 48.2211 25.732C48.3144 25.8547 48.3611 26.0213 48.3611 26.232C48.3611 26.4347 48.3144 26.6013 48.2211 26.732C48.1278 26.8627 48.0038 26.96 47.8491 27.024C47.6944 27.0853 47.5251 27.116 47.3411 27.116H47.0171V28H46.4291ZM47.0171 26.648H47.3051C47.6251 26.648 47.7851 26.5093 47.7851 26.232C47.7851 26.096 47.7424 26 47.6571 25.944C47.5718 25.888 47.4491 25.86 47.2891 25.86H47.0171V26.648ZM50.1207 28V25.888H49.4047V25.392H51.4287V25.888H50.7127V28H50.1207ZM52.7821 28.048C52.5474 28.048 52.3407 27.9933 52.1621 27.884C51.9861 27.7747 51.8474 27.6187 51.7461 27.416C51.6474 27.2107 51.5981 26.9667 51.5981 26.684C51.5981 26.3987 51.6474 26.1573 51.7461 25.96C51.8474 25.76 51.9861 25.608 52.1621 25.504C52.3407 25.3973 52.5474 25.344 52.7821 25.344C53.0167 25.344 53.2221 25.3973 53.3981 25.504C53.5767 25.608 53.7154 25.76 53.8141 25.96C53.9154 26.16 53.9661 26.4013 53.9661 26.684C53.9661 26.9667 53.9154 27.2107 53.8141 27.416C53.7154 27.6187 53.5767 27.7747 53.3981 27.884C53.2221 27.9933 53.0167 28.048 52.7821 28.048ZM52.7821 27.54C52.9607 27.54 53.1021 27.4627 53.2061 27.308C53.3101 27.1533 53.3621 26.9453 53.3621 26.684C53.3621 26.4227 53.3101 26.2187 53.2061 26.072C53.1021 25.9253 52.9607 25.852 52.7821 25.852C52.6034 25.852 52.4621 25.9253 52.3581 26.072C52.2541 26.2187 52.2021 26.4227 52.2021 26.684C52.2021 26.9453 52.2541 27.1533 52.3581 27.308C52.4621 27.4627 52.6034 27.54 52.7821 27.54Z" fill="#858D9D"/>
</svg>
