<svg width="73" height="94" viewBox="0 0 73 94" fill="none" xmlns="http://www.w3.org/2000/svg">
<rect width="72.5" height="94" rx="4" fill="white"/>
<rect x="5" y="7" width="10" height="10" rx="1" fill="#DDDEE0"/>
<rect x="5" y="40" width="62" height="15" rx="1" fill="#E0E2E7"/>
<path d="M48.483 52.196V51.728H48.743C48.9964 51.728 49.1497 51.6333 49.203 51.444H48.483V51.172L48.779 51.148H49.199C49.1724 51.0653 49.1204 51.008 49.043 50.976C48.9657 50.944 48.8657 50.928 48.743 50.928H48.483V50.46H50.067V50.756H49.539C49.667 50.8467 49.7484 50.9773 49.783 51.148H50.067V51.444H49.787C49.7684 51.6067 49.7164 51.7427 49.631 51.852C49.5457 51.9587 49.4404 52.04 49.315 52.096L49.999 53H49.339L48.767 52.196H48.483ZM51.4011 53V52.524H51.9531V51.056H51.4771V50.692C51.6158 50.6653 51.7331 50.6333 51.8291 50.596C51.9251 50.5587 52.0184 50.5133 52.1091 50.46H52.5411V52.524H53.0171V53H51.4011ZM54.2904 53.048C54.0184 53.048 53.7984 52.9347 53.6304 52.708C53.465 52.4813 53.3824 52.152 53.3824 51.72C53.3824 51.288 53.465 50.9627 53.6304 50.744C53.7984 50.5227 54.0184 50.412 54.2904 50.412C54.5624 50.412 54.781 50.5227 54.9464 50.744C55.1144 50.9627 55.1984 51.288 55.1984 51.72C55.1984 52.152 55.1144 52.4813 54.9464 52.708C54.781 52.9347 54.5624 53.048 54.2904 53.048ZM54.2904 52.592C54.357 52.592 54.417 52.568 54.4704 52.52C54.5237 52.4693 54.565 52.3813 54.5944 52.256C54.6264 52.1307 54.6424 51.952 54.6424 51.72C54.6424 51.488 54.6264 51.3107 54.5944 51.188C54.565 51.0653 54.5237 50.9813 54.4704 50.936C54.417 50.8907 54.357 50.868 54.2904 50.868C54.2264 50.868 54.1677 50.8907 54.1144 50.936C54.061 50.9813 54.0184 51.0653 53.9864 51.188C53.9544 51.3107 53.9384 51.488 53.9384 51.72C53.9384 51.952 53.9544 52.1307 53.9864 52.256C54.0184 52.3813 54.061 52.4693 54.1144 52.52C54.1677 52.568 54.2264 52.592 54.2904 52.592ZM56.4037 53.048C56.1317 53.048 55.9117 52.9347 55.7437 52.708C55.5783 52.4813 55.4957 52.152 55.4957 51.72C55.4957 51.288 55.5783 50.9627 55.7437 50.744C55.9117 50.5227 56.1317 50.412 56.4037 50.412C56.6757 50.412 56.8943 50.5227 57.0597 50.744C57.2277 50.9627 57.3117 51.288 57.3117 51.72C57.3117 52.152 57.2277 52.4813 57.0597 52.708C56.8943 52.9347 56.6757 53.048 56.4037 53.048ZM56.4037 52.592C56.4703 52.592 56.5303 52.568 56.5837 52.52C56.637 52.4693 56.6783 52.3813 56.7077 52.256C56.7397 52.1307 56.7557 51.952 56.7557 51.72C56.7557 51.488 56.7397 51.3107 56.7077 51.188C56.6783 51.0653 56.637 50.9813 56.5837 50.936C56.5303 50.8907 56.4703 50.868 56.4037 50.868C56.3397 50.868 56.281 50.8907 56.2277 50.936C56.1743 50.9813 56.1317 51.0653 56.0997 51.188C56.0677 51.3107 56.0517 51.488 56.0517 51.72C56.0517 51.952 56.0677 52.1307 56.0997 52.256C56.1317 52.3813 56.1743 52.4693 56.2277 52.52C56.281 52.568 56.3397 52.592 56.4037 52.592ZM58.5169 53.048C58.2449 53.048 58.0249 52.9347 57.8569 52.708C57.6916 52.4813 57.6089 52.152 57.6089 51.72C57.6089 51.288 57.6916 50.9627 57.8569 50.744C58.0249 50.5227 58.2449 50.412 58.5169 50.412C58.7889 50.412 59.0076 50.5227 59.1729 50.744C59.3409 50.9627 59.4249 51.288 59.4249 51.72C59.4249 52.152 59.3409 52.4813 59.1729 52.708C59.0076 52.9347 58.7889 53.048 58.5169 53.048ZM58.5169 52.592C58.5836 52.592 58.6436 52.568 58.6969 52.52C58.7503 52.4693 58.7916 52.3813 58.8209 52.256C58.8529 52.1307 58.8689 51.952 58.8689 51.72C58.8689 51.488 58.8529 51.3107 58.8209 51.188C58.7916 51.0653 58.7503 50.9813 58.6969 50.936C58.6436 50.8907 58.5836 50.868 58.5169 50.868C58.4529 50.868 58.3943 50.8907 58.3409 50.936C58.2876 50.9813 58.2449 51.0653 58.2129 51.188C58.1809 51.3107 58.1649 51.488 58.1649 51.72C58.1649 51.952 58.1809 52.1307 58.2129 52.256C58.2449 52.3813 58.2876 52.4693 58.3409 52.52C58.3943 52.568 58.4529 52.592 58.5169 52.592ZM60.1742 53.048C60.0729 53.048 59.9876 53.0133 59.9182 52.944C59.8516 52.872 59.8182 52.784 59.8182 52.68C59.8182 52.5733 59.8516 52.4853 59.9182 52.416C59.9876 52.344 60.0729 52.308 60.1742 52.308C60.2756 52.308 60.3596 52.344 60.4262 52.416C60.4956 52.4853 60.5302 52.5733 60.5302 52.68C60.5302 52.784 60.4956 52.872 60.4262 52.944C60.3596 53.0133 60.2756 53.048 60.1742 53.048ZM61.8294 53.048C61.5574 53.048 61.3374 52.9347 61.1694 52.708C61.0041 52.4813 60.9214 52.152 60.9214 51.72C60.9214 51.288 61.0041 50.9627 61.1694 50.744C61.3374 50.5227 61.5574 50.412 61.8294 50.412C62.1014 50.412 62.3201 50.5227 62.4854 50.744C62.6534 50.9627 62.7374 51.288 62.7374 51.72C62.7374 52.152 62.6534 52.4813 62.4854 52.708C62.3201 52.9347 62.1014 53.048 61.8294 53.048ZM61.8294 52.592C61.8961 52.592 61.9561 52.568 62.0094 52.52C62.0628 52.4693 62.1041 52.3813 62.1334 52.256C62.1654 52.1307 62.1814 51.952 62.1814 51.72C62.1814 51.488 62.1654 51.3107 62.1334 51.188C62.1041 51.0653 62.0628 50.9813 62.0094 50.936C61.9561 50.8907 61.8961 50.868 61.8294 50.868C61.7654 50.868 61.7068 50.8907 61.6534 50.936C61.6001 50.9813 61.5574 51.0653 61.5254 51.188C61.4934 51.3107 61.4774 51.488 61.4774 51.72C61.4774 51.952 61.4934 52.1307 61.5254 52.256C61.5574 52.3813 61.6001 52.4693 61.6534 52.52C61.7068 52.568 61.7654 52.592 61.8294 52.592ZM63.9427 53.048C63.6707 53.048 63.4507 52.9347 63.2827 52.708C63.1174 52.4813 63.0347 52.152 63.0347 51.72C63.0347 51.288 63.1174 50.9627 63.2827 50.744C63.4507 50.5227 63.6707 50.412 63.9427 50.412C64.2147 50.412 64.4334 50.5227 64.5987 50.744C64.7667 50.9627 64.8507 51.288 64.8507 51.72C64.8507 52.152 64.7667 52.4813 64.5987 52.708C64.4334 52.9347 64.2147 53.048 63.9427 53.048ZM63.9427 52.592C64.0094 52.592 64.0694 52.568 64.1227 52.52C64.1761 52.4693 64.2174 52.3813 64.2467 52.256C64.2787 52.1307 64.2947 51.952 64.2947 51.72C64.2947 51.488 64.2787 51.3107 64.2467 51.188C64.2174 51.0653 64.1761 50.9813 64.1227 50.936C64.0694 50.8907 64.0094 50.868 63.9427 50.868C63.8787 50.868 63.8201 50.8907 63.7667 50.936C63.7134 50.9813 63.6707 51.0653 63.6387 51.188C63.6067 51.3107 63.5907 51.488 63.5907 51.72C63.5907 51.952 63.6067 52.1307 63.6387 52.256C63.6707 52.3813 63.7134 52.4693 63.7667 52.52C63.8201 52.568 63.8787 52.592 63.9427 52.592Z" fill="#858D9D"/>
<rect x="5" y="57" width="62" height="13" rx="1" fill="#E0E2E7"/>
<line x1="17" y1="8.5" x2="33" y2="8.5" stroke="#E0E2E7"/>
<line x1="40" y1="8.5" x2="47" y2="8.5" stroke="#C2C6CE"/>
<line x1="40" y1="14.5" x2="47" y2="14.5" stroke="#E0E2E7"/>
<line x1="50" y1="8.5" x2="57" y2="8.5" stroke="#C2C6CE"/>
<line x1="50" y1="14.5" x2="57" y2="14.5" stroke="#E0E2E7"/>
<line x1="60" y1="8.5" x2="67" y2="8.5" stroke="#C2C6CE"/>
<line x1="60" y1="14.5" x2="67" y2="14.5" stroke="#E0E2E7"/>
<line x1="36.5" y1="7" x2="36.5" y2="36" stroke="#F6F7F7"/>
<line x1="36.5" y1="79" x2="36.5" y2="87" stroke="#F6F7F7"/>
<line x1="20.5" y1="40" x2="20.5" y2="55" stroke="#F6F7F7"/>
<line x1="32.5" y1="40" x2="32.5" y2="55" stroke="#F6F7F7"/>
<line x1="44.5" y1="40" x2="44.5" y2="55" stroke="#F6F7F7"/>
<line x1="25.5" y1="57" x2="25.5" y2="70" stroke="#F6F7F7"/>
<line x1="41.5" y1="57" x2="41.5" y2="70" stroke="#F6F7F7"/>
<line x1="57.5" y1="57" x2="57.5" y2="70" stroke="#F6F7F7"/>
<line x1="9.5" y1="40" x2="9.5" y2="55" stroke="#F6F7F7"/>
<line x1="9.5" y1="57" x2="9.5" y2="70" stroke="#F6F7F7"/>
<line x1="5" y1="34.5" x2="16" y2="34.5" stroke="#E0E2E7"/>
<line x1="40" y1="34.5" x2="51" y2="34.5" stroke="#E0E2E7"/>
<line x1="5" y1="31.5" x2="33" y2="31.5" stroke="#E0E2E7"/>
<line x1="40" y1="31.5" x2="67" y2="31.5" stroke="#E0E2E7"/>
<line x1="5" y1="21.5" x2="67" y2="21.5" stroke="#F6F7F7"/>
<line x1="5" y1="79.5" x2="67" y2="79.5" stroke="#F6F7F7"/>
<line x1="5" y1="73.5" x2="67" y2="73.5" stroke="#C2C6CE"/>
<line x1="5" y1="83.5" x2="29" y2="83.5" stroke="#E0E2E7"/>
<line x1="5" y1="43.5" x2="67" y2="43.5" stroke="#F6F7F7"/>
<line x1="5" y1="60.5" x2="67" y2="60.5" stroke="#F6F7F7"/>
<line x1="17" y1="14.5" x2="33" y2="14.5" stroke="#E0E2E7"/>
<line x1="17" y1="11.5" x2="33" y2="11.5" stroke="#E0E2E7"/>
<line x1="40" y1="11" x2="44" y2="11" stroke="#C2C6CE"/>
<line x1="40" y1="17" x2="44" y2="17" stroke="#E0E2E7"/>
<line x1="50" y1="11" x2="54" y2="11" stroke="#C2C6CE"/>
<line x1="50" y1="17" x2="54" y2="17" stroke="#E0E2E7"/>
<line x1="60" y1="11" x2="64" y2="11" stroke="#C2C6CE"/>
<line x1="60" y1="17" x2="64" y2="17" stroke="#E0E2E7"/>
<line x1="5" y1="76.5" x2="40" y2="76.5" stroke="#C2C6CE"/>
<line x1="5" y1="86.5" x2="18" y2="86.5" stroke="#E0E2E7"/>
<line x1="44" y1="86.5" x2="57" y2="86.5" stroke="#E0E2E7"/>
<line x1="44" y1="83.5" x2="67" y2="83.5" stroke="#E0E2E7"/>
<line x1="17" y1="17.5" x2="23" y2="17.5" stroke="#E0E2E7"/>
<path d="M5.308 28V25.392H6.2C6.38133 25.392 6.544 25.412 6.688 25.452C6.832 25.4893 6.94667 25.5547 7.032 25.648C7.11733 25.7413 7.16 25.872 7.16 26.04C7.16 26.1547 7.12933 26.268 7.068 26.38C7.00933 26.4893 6.92667 26.564 6.82 26.604V26.62C6.95333 26.6547 7.064 26.7227 7.152 26.824C7.24267 26.9227 7.288 27.0587 7.288 27.232C7.288 27.4107 7.24267 27.556 7.152 27.668C7.06133 27.78 6.94 27.864 6.788 27.92C6.636 27.9733 6.46533 28 6.276 28H5.308ZM5.896 26.436H6.172C6.316 26.436 6.42 26.408 6.484 26.352C6.55067 26.296 6.584 26.2213 6.584 26.128C6.584 26.0267 6.55067 25.9547 6.484 25.912C6.41733 25.8693 6.31467 25.848 6.176 25.848H5.896V26.436ZM5.896 27.544H6.228C6.55067 27.544 6.712 27.4267 6.712 27.192C6.712 27.0773 6.672 26.996 6.592 26.948C6.512 26.8973 6.39067 26.872 6.228 26.872H5.896V27.544ZM7.72988 28V25.392H8.31788V28H7.72988ZM8.933 28V25.392H9.521V27.504H10.553V28H8.933ZM11.0033 28V25.392H11.5913V27.504H12.6233V28H11.0033ZM14.3824 28V25.888H13.6664V25.392H15.6904V25.888H14.9744V28H14.3824ZM17.0438 28.048C16.8091 28.048 16.6024 27.9933 16.4238 27.884C16.2478 27.7747 16.1091 27.6187 16.0078 27.416C15.9091 27.2107 15.8598 26.9667 15.8598 26.684C15.8598 26.3987 15.9091 26.1573 16.0078 25.96C16.1091 25.76 16.2478 25.608 16.4238 25.504C16.6024 25.3973 16.8091 25.344 17.0438 25.344C17.2784 25.344 17.4838 25.3973 17.6598 25.504C17.8384 25.608 17.9771 25.76 18.0758 25.96C18.1771 26.16 18.2278 26.4013 18.2278 26.684C18.2278 26.9667 18.1771 27.2107 18.0758 27.416C17.9771 27.6187 17.8384 27.7747 17.6598 27.884C17.4838 27.9933 17.2784 28.048 17.0438 28.048ZM17.0438 27.54C17.2224 27.54 17.3638 27.4627 17.4678 27.308C17.5718 27.1533 17.6238 26.9453 17.6238 26.684C17.6238 26.4227 17.5718 26.2187 17.4678 26.072C17.3638 25.9253 17.2224 25.852 17.0438 25.852C16.8651 25.852 16.7238 25.9253 16.6198 26.072C16.5158 26.2187 16.4638 26.4227 16.4638 26.684C16.4638 26.9453 16.5158 27.1533 16.6198 27.308C16.7238 27.4627 16.8651 27.54 17.0438 27.54Z" fill="#858D9D"/>
<path d="M41.104 28.048C40.9333 28.048 40.7627 28.016 40.592 27.952C40.424 27.888 40.2733 27.7947 40.14 27.672L40.476 27.268C40.5693 27.348 40.6733 27.4133 40.788 27.464C40.9027 27.5147 41.0133 27.54 41.12 27.54C41.2427 27.54 41.3333 27.5173 41.392 27.472C41.4533 27.4267 41.484 27.3653 41.484 27.288C41.484 27.2053 41.4493 27.1453 41.38 27.108C41.3133 27.068 41.2227 27.024 41.108 26.976L40.768 26.832C40.68 26.7947 40.596 26.7453 40.516 26.684C40.436 26.62 40.3707 26.5413 40.32 26.448C40.2693 26.3547 40.244 26.2453 40.244 26.12C40.244 25.976 40.2827 25.8453 40.36 25.728C40.44 25.6107 40.5493 25.5173 40.688 25.448C40.8293 25.3787 40.9907 25.344 41.172 25.344C41.3213 25.344 41.4707 25.3733 41.62 25.432C41.7693 25.4907 41.9 25.576 42.012 25.688L41.712 26.06C41.6267 25.9933 41.5413 25.9427 41.456 25.908C41.3707 25.8707 41.276 25.852 41.172 25.852C41.0707 25.852 40.9893 25.8733 40.928 25.916C40.8693 25.956 40.84 26.0133 40.84 26.088C40.84 26.168 40.8773 26.228 40.952 26.268C41.0293 26.308 41.124 26.3507 41.236 26.396L41.572 26.532C41.7293 26.596 41.8547 26.684 41.948 26.796C42.0413 26.908 42.088 27.056 42.088 27.24C42.088 27.384 42.0493 27.5173 41.972 27.64C41.8947 27.7627 41.7827 27.8613 41.636 27.936C41.4893 28.0107 41.312 28.048 41.104 28.048ZM42.5307 28V25.392H43.1187V26.396H44.0187V25.392H44.6107V28H44.0187V26.912H43.1187V28H42.5307ZM45.226 28V25.392H45.814V28H45.226ZM46.4291 28V25.392H47.3251C47.5171 25.392 47.6904 25.4187 47.8451 25.472C48.0024 25.5227 48.1278 25.6093 48.2211 25.732C48.3144 25.8547 48.3611 26.0213 48.3611 26.232C48.3611 26.4347 48.3144 26.6013 48.2211 26.732C48.1278 26.8627 48.0038 26.96 47.8491 27.024C47.6944 27.0853 47.5251 27.116 47.3411 27.116H47.0171V28H46.4291ZM47.0171 26.648H47.3051C47.6251 26.648 47.7851 26.5093 47.7851 26.232C47.7851 26.096 47.7424 26 47.6571 25.944C47.5718 25.888 47.4491 25.86 47.2891 25.86H47.0171V26.648ZM50.1207 28V25.888H49.4047V25.392H51.4287V25.888H50.7127V28H50.1207ZM52.7821 28.048C52.5474 28.048 52.3407 27.9933 52.1621 27.884C51.9861 27.7747 51.8474 27.6187 51.7461 27.416C51.6474 27.2107 51.5981 26.9667 51.5981 26.684C51.5981 26.3987 51.6474 26.1573 51.7461 25.96C51.8474 25.76 51.9861 25.608 52.1621 25.504C52.3407 25.3973 52.5474 25.344 52.7821 25.344C53.0167 25.344 53.2221 25.3973 53.3981 25.504C53.5767 25.608 53.7154 25.76 53.8141 25.96C53.9154 26.16 53.9661 26.4013 53.9661 26.684C53.9661 26.9667 53.9154 27.2107 53.8141 27.416C53.7154 27.6187 53.5767 27.7747 53.3981 27.884C53.2221 27.9933 53.0167 28.048 52.7821 28.048ZM52.7821 27.54C52.9607 27.54 53.1021 27.4627 53.2061 27.308C53.3101 27.1533 53.3621 26.9453 53.3621 26.684C53.3621 26.4227 53.3101 26.2187 53.2061 26.072C53.1021 25.9253 52.9607 25.852 52.7821 25.852C52.6034 25.852 52.4621 25.9253 52.3581 26.072C52.2541 26.2187 52.2021 26.4227 52.2021 26.684C52.2021 26.9453 52.2541 27.1533 52.3581 27.308C52.4621 27.4627 52.6034 27.54 52.7821 27.54Z" fill="#858D9D"/>
</svg>
