<svg width="73" height="94" viewBox="0 0 73 94" fill="none" xmlns="http://www.w3.org/2000/svg">
<rect width="72.5" height="94" rx="4" fill="white"/>
<rect x="5" y="7" width="10" height="10" rx="1" fill="#DDDEE0"/>
<line x1="23" y1="8.5" x2="60" y2="8.5" stroke="#E0E2E7"/>
<line x1="23" y1="11.5" x2="60" y2="11.5" stroke="#E0E2E7"/>
<line x1="29" y1="14.5" x2="53" y2="14.5" stroke="#E0E2E7"/>
<rect x="5" y="40" width="62" height="30" rx="1" fill="#E0E2E7"/>
<path d="M48.483 67.196V66.728H48.743C48.9964 66.728 49.1497 66.6333 49.203 66.444H48.483V66.172L48.779 66.148H49.199C49.1724 66.0653 49.1204 66.008 49.043 65.976C48.9657 65.944 48.8657 65.928 48.743 65.928H48.483V65.46H50.067V65.756H49.539C49.667 65.8467 49.7484 65.9773 49.783 66.148H50.067V66.444H49.787C49.7684 66.6067 49.7164 66.7427 49.631 66.852C49.5457 66.9587 49.4404 67.04 49.315 67.096L49.999 68H49.339L48.767 67.196H48.483ZM51.4011 68V67.524H51.9531V66.056H51.4771V65.692C51.6158 65.6653 51.7331 65.6333 51.8291 65.596C51.9251 65.5587 52.0184 65.5133 52.1091 65.46H52.5411V67.524H53.0171V68H51.4011ZM54.2904 68.048C54.0184 68.048 53.7984 67.9347 53.6304 67.708C53.465 67.4813 53.3824 67.152 53.3824 66.72C53.3824 66.288 53.465 65.9627 53.6304 65.744C53.7984 65.5227 54.0184 65.412 54.2904 65.412C54.5624 65.412 54.781 65.5227 54.9464 65.744C55.1144 65.9627 55.1984 66.288 55.1984 66.72C55.1984 67.152 55.1144 67.4813 54.9464 67.708C54.781 67.9347 54.5624 68.048 54.2904 68.048ZM54.2904 67.592C54.357 67.592 54.417 67.568 54.4704 67.52C54.5237 67.4693 54.565 67.3813 54.5944 67.256C54.6264 67.1307 54.6424 66.952 54.6424 66.72C54.6424 66.488 54.6264 66.3107 54.5944 66.188C54.565 66.0653 54.5237 65.9813 54.4704 65.936C54.417 65.8907 54.357 65.868 54.2904 65.868C54.2264 65.868 54.1677 65.8907 54.1144 65.936C54.061 65.9813 54.0184 66.0653 53.9864 66.188C53.9544 66.3107 53.9384 66.488 53.9384 66.72C53.9384 66.952 53.9544 67.1307 53.9864 67.256C54.0184 67.3813 54.061 67.4693 54.1144 67.52C54.1677 67.568 54.2264 67.592 54.2904 67.592ZM56.4037 68.048C56.1317 68.048 55.9117 67.9347 55.7437 67.708C55.5783 67.4813 55.4957 67.152 55.4957 66.72C55.4957 66.288 55.5783 65.9627 55.7437 65.744C55.9117 65.5227 56.1317 65.412 56.4037 65.412C56.6757 65.412 56.8943 65.5227 57.0597 65.744C57.2277 65.9627 57.3117 66.288 57.3117 66.72C57.3117 67.152 57.2277 67.4813 57.0597 67.708C56.8943 67.9347 56.6757 68.048 56.4037 68.048ZM56.4037 67.592C56.4703 67.592 56.5303 67.568 56.5837 67.52C56.637 67.4693 56.6783 67.3813 56.7077 67.256C56.7397 67.1307 56.7557 66.952 56.7557 66.72C56.7557 66.488 56.7397 66.3107 56.7077 66.188C56.6783 66.0653 56.637 65.9813 56.5837 65.936C56.5303 65.8907 56.4703 65.868 56.4037 65.868C56.3397 65.868 56.281 65.8907 56.2277 65.936C56.1743 65.9813 56.1317 66.0653 56.0997 66.188C56.0677 66.3107 56.0517 66.488 56.0517 66.72C56.0517 66.952 56.0677 67.1307 56.0997 67.256C56.1317 67.3813 56.1743 67.4693 56.2277 67.52C56.281 67.568 56.3397 67.592 56.4037 67.592ZM58.5169 68.048C58.2449 68.048 58.0249 67.9347 57.8569 67.708C57.6916 67.4813 57.6089 67.152 57.6089 66.72C57.6089 66.288 57.6916 65.9627 57.8569 65.744C58.0249 65.5227 58.2449 65.412 58.5169 65.412C58.7889 65.412 59.0076 65.5227 59.1729 65.744C59.3409 65.9627 59.4249 66.288 59.4249 66.72C59.4249 67.152 59.3409 67.4813 59.1729 67.708C59.0076 67.9347 58.7889 68.048 58.5169 68.048ZM58.5169 67.592C58.5836 67.592 58.6436 67.568 58.6969 67.52C58.7503 67.4693 58.7916 67.3813 58.8209 67.256C58.8529 67.1307 58.8689 66.952 58.8689 66.72C58.8689 66.488 58.8529 66.3107 58.8209 66.188C58.7916 66.0653 58.7503 65.9813 58.6969 65.936C58.6436 65.8907 58.5836 65.868 58.5169 65.868C58.4529 65.868 58.3943 65.8907 58.3409 65.936C58.2876 65.9813 58.2449 66.0653 58.2129 66.188C58.1809 66.3107 58.1649 66.488 58.1649 66.72C58.1649 66.952 58.1809 67.1307 58.2129 67.256C58.2449 67.3813 58.2876 67.4693 58.3409 67.52C58.3943 67.568 58.4529 67.592 58.5169 67.592ZM60.1742 68.048C60.0729 68.048 59.9876 68.0133 59.9182 67.944C59.8516 67.872 59.8182 67.784 59.8182 67.68C59.8182 67.5733 59.8516 67.4853 59.9182 67.416C59.9876 67.344 60.0729 67.308 60.1742 67.308C60.2756 67.308 60.3596 67.344 60.4262 67.416C60.4956 67.4853 60.5302 67.5733 60.5302 67.68C60.5302 67.784 60.4956 67.872 60.4262 67.944C60.3596 68.0133 60.2756 68.048 60.1742 68.048ZM61.8294 68.048C61.5574 68.048 61.3374 67.9347 61.1694 67.708C61.0041 67.4813 60.9214 67.152 60.9214 66.72C60.9214 66.288 61.0041 65.9627 61.1694 65.744C61.3374 65.5227 61.5574 65.412 61.8294 65.412C62.1014 65.412 62.3201 65.5227 62.4854 65.744C62.6534 65.9627 62.7374 66.288 62.7374 66.72C62.7374 67.152 62.6534 67.4813 62.4854 67.708C62.3201 67.9347 62.1014 68.048 61.8294 68.048ZM61.8294 67.592C61.8961 67.592 61.9561 67.568 62.0094 67.52C62.0628 67.4693 62.1041 67.3813 62.1334 67.256C62.1654 67.1307 62.1814 66.952 62.1814 66.72C62.1814 66.488 62.1654 66.3107 62.1334 66.188C62.1041 66.0653 62.0628 65.9813 62.0094 65.936C61.9561 65.8907 61.8961 65.868 61.8294 65.868C61.7654 65.868 61.7068 65.8907 61.6534 65.936C61.6001 65.9813 61.5574 66.0653 61.5254 66.188C61.4934 66.3107 61.4774 66.488 61.4774 66.72C61.4774 66.952 61.4934 67.1307 61.5254 67.256C61.5574 67.3813 61.6001 67.4693 61.6534 67.52C61.7068 67.568 61.7654 67.592 61.8294 67.592ZM63.9427 68.048C63.6707 68.048 63.4507 67.9347 63.2827 67.708C63.1174 67.4813 63.0347 67.152 63.0347 66.72C63.0347 66.288 63.1174 65.9627 63.2827 65.744C63.4507 65.5227 63.6707 65.412 63.9427 65.412C64.2147 65.412 64.4334 65.5227 64.5987 65.744C64.7667 65.9627 64.8507 66.288 64.8507 66.72C64.8507 67.152 64.7667 67.4813 64.5987 67.708C64.4334 67.9347 64.2147 68.048 63.9427 68.048ZM63.9427 67.592C64.0094 67.592 64.0694 67.568 64.1227 67.52C64.1761 67.4693 64.2174 67.3813 64.2467 67.256C64.2787 67.1307 64.2947 66.952 64.2947 66.72C64.2947 66.488 64.2787 66.3107 64.2467 66.188C64.2174 66.0653 64.1761 65.9813 64.1227 65.936C64.0694 65.8907 64.0094 65.868 63.9427 65.868C63.8787 65.868 63.8201 65.8907 63.7667 65.936C63.7134 65.9813 63.6707 66.0653 63.6387 66.188C63.6067 66.3107 63.5907 66.488 63.5907 66.72C63.5907 66.952 63.6067 67.1307 63.6387 67.256C63.6707 67.3813 63.7134 67.4693 63.7667 67.52C63.8201 67.568 63.8787 67.592 63.9427 67.592Z" fill="#858D9D"/>
<line x1="40" y1="25.5" x2="47" y2="25.5" stroke="#C2C6CE"/>
<line x1="40" y1="31.5" x2="47" y2="31.5" stroke="#E0E2E7"/>
<line x1="50" y1="25.5" x2="57" y2="25.5" stroke="#C2C6CE"/>
<line x1="50" y1="31.5" x2="57" y2="31.5" stroke="#E0E2E7"/>
<line x1="60" y1="25.5" x2="67" y2="25.5" stroke="#C2C6CE"/>
<line x1="60" y1="31.5" x2="67" y2="31.5" stroke="#E0E2E7"/>
<line x1="36.5" y1="22" x2="36.5" y2="36" stroke="#F6F7F7"/>
<line x1="36.5" y1="79" x2="36.5" y2="87" stroke="#F6F7F7"/>
<line x1="20.5" y1="40" x2="20.5" y2="70" stroke="#F6F7F7"/>
<line x1="32.5" y1="40" x2="32.5" y2="70" stroke="#F6F7F7"/>
<line x1="44.5" y1="40" x2="44.5" y2="70" stroke="#F6F7F7"/>
<line x1="9.5" y1="40" x2="9.5" y2="70" stroke="#F6F7F7"/>
<line x1="5" y1="34.5" x2="16" y2="34.5" stroke="#E0E2E7"/>
<line x1="5" y1="31.5" x2="33" y2="31.5" stroke="#E0E2E7"/>
<line x1="5" y1="21.5" x2="67" y2="21.5" stroke="#F6F7F7"/>
<line x1="5" y1="79.5" x2="67" y2="79.5" stroke="#F6F7F7"/>
<line x1="5" y1="73.5" x2="67" y2="73.5" stroke="#C2C6CE"/>
<line x1="5" y1="83.5" x2="29" y2="83.5" stroke="#E0E2E7"/>
<line x1="5" y1="43.5" x2="67" y2="43.5" stroke="#F6F7F7"/>
<line x1="40" y1="28" x2="44" y2="28" stroke="#C2C6CE"/>
<line x1="40" y1="34" x2="44" y2="34" stroke="#E0E2E7"/>
<line x1="50" y1="28" x2="54" y2="28" stroke="#C2C6CE"/>
<line x1="50" y1="34" x2="54" y2="34" stroke="#E0E2E7"/>
<line x1="60" y1="28" x2="64" y2="28" stroke="#C2C6CE"/>
<line x1="60" y1="34" x2="64" y2="34" stroke="#E0E2E7"/>
<line x1="5" y1="76.5" x2="40" y2="76.5" stroke="#C2C6CE"/>
<line x1="5" y1="86.5" x2="18" y2="86.5" stroke="#E0E2E7"/>
<line x1="44" y1="86.5" x2="57" y2="86.5" stroke="#E0E2E7"/>
<line x1="44" y1="83.5" x2="67" y2="83.5" stroke="#E0E2E7"/>
<path d="M5.308 28V25.392H6.2C6.38133 25.392 6.544 25.412 6.688 25.452C6.832 25.4893 6.94667 25.5547 7.032 25.648C7.11733 25.7413 7.16 25.872 7.16 26.04C7.16 26.1547 7.12933 26.268 7.068 26.38C7.00933 26.4893 6.92667 26.564 6.82 26.604V26.62C6.95333 26.6547 7.064 26.7227 7.152 26.824C7.24267 26.9227 7.288 27.0587 7.288 27.232C7.288 27.4107 7.24267 27.556 7.152 27.668C7.06133 27.78 6.94 27.864 6.788 27.92C6.636 27.9733 6.46533 28 6.276 28H5.308ZM5.896 26.436H6.172C6.316 26.436 6.42 26.408 6.484 26.352C6.55067 26.296 6.584 26.2213 6.584 26.128C6.584 26.0267 6.55067 25.9547 6.484 25.912C6.41733 25.8693 6.31467 25.848 6.176 25.848H5.896V26.436ZM5.896 27.544H6.228C6.55067 27.544 6.712 27.4267 6.712 27.192C6.712 27.0773 6.672 26.996 6.592 26.948C6.512 26.8973 6.39067 26.872 6.228 26.872H5.896V27.544ZM7.72988 28V25.392H8.31788V28H7.72988ZM8.933 28V25.392H9.521V27.504H10.553V28H8.933ZM11.0033 28V25.392H11.5913V27.504H12.6233V28H11.0033ZM14.3824 28V25.888H13.6664V25.392H15.6904V25.888H14.9744V28H14.3824ZM17.0438 28.048C16.8091 28.048 16.6024 27.9933 16.4238 27.884C16.2478 27.7747 16.1091 27.6187 16.0078 27.416C15.9091 27.2107 15.8598 26.9667 15.8598 26.684C15.8598 26.3987 15.9091 26.1573 16.0078 25.96C16.1091 25.76 16.2478 25.608 16.4238 25.504C16.6024 25.3973 16.8091 25.344 17.0438 25.344C17.2784 25.344 17.4838 25.3973 17.6598 25.504C17.8384 25.608 17.9771 25.76 18.0758 25.96C18.1771 26.16 18.2278 26.4013 18.2278 26.684C18.2278 26.9667 18.1771 27.2107 18.0758 27.416C17.9771 27.6187 17.8384 27.7747 17.6598 27.884C17.4838 27.9933 17.2784 28.048 17.0438 28.048ZM17.0438 27.54C17.2224 27.54 17.3638 27.4627 17.4678 27.308C17.5718 27.1533 17.6238 26.9453 17.6238 26.684C17.6238 26.4227 17.5718 26.2187 17.4678 26.072C17.3638 25.9253 17.2224 25.852 17.0438 25.852C16.8651 25.852 16.7238 25.9253 16.6198 26.072C16.5158 26.2187 16.4638 26.4227 16.4638 26.684C16.4638 26.9453 16.5158 27.1533 16.6198 27.308C16.7238 27.4627 16.8651 27.54 17.0438 27.54Z" fill="#858D9D"/>
</svg>
