<svg width="73" height="69" viewBox="0 0 73 69" fill="none" xmlns="http://www.w3.org/2000/svg">
<rect width="72.5" height="69" rx="4" fill="white"/>
<line x1="36.75" y1="57" x2="36.75" y2="65" stroke="#F6F7F7"/>
<line x1="5.87842" y1="56.501" x2="66.6217" y2="56.501" stroke="#F6F7F7"/>
<line x1="5.87842" y1="49.501" x2="40.169" y2="49.501" stroke="#C2C6CE"/>
<line x1="5.87842" y1="60.501" x2="29.3919" y2="60.501" stroke="#E0E2E7"/>
<line x1="5.87842" y1="52.501" x2="40.169" y2="52.501" stroke="#C2C6CE"/>
<line x1="5.87842" y1="63.501" x2="18.6149" y2="63.501" stroke="#E0E2E7"/>
<line x1="49.9663" y1="63.501" x2="62.7028" y2="63.501" stroke="#E0E2E7"/>
<line x1="44.0879" y1="60.501" x2="66.6217" y2="60.501" stroke="#E0E2E7"/>
<rect x="5.87842" y="4" width="9.7973" height="10" rx="1" fill="#DDDEE0"/>
<rect y="31" width="72.5" height="15" fill="#E0E2E7"/>
<path d="M0 42H72.5V46H0V42Z" fill="#C2C6CE"/>
<line x1="25.9263" y1="31.001" x2="25.9263" y2="46.001" stroke="#F6F7F7" stroke-width="0.90625"/>
<line x1="36.7031" y1="31.001" x2="36.7031" y2="46.001" stroke="#F6F7F7" stroke-width="0.90625"/>
<line x1="49.4395" y1="31.001" x2="49.4395" y2="46.001" stroke="#F6F7F7" stroke-width="0.90625"/>
<line x1="62.1763" y1="31.001" x2="62.1763" y2="46.001" stroke="#F6F7F7" stroke-width="0.90625"/>
<line x1="10.2505" y1="31.001" x2="10.2505" y2="46.001" stroke="#F6F7F7" stroke-width="0.90625"/>
<line x1="3.85391e-08" y1="35.5469" x2="72.5" y2="35.5469" stroke="#F6F7F7" stroke-width="0.90625"/>
<line x1="19.5947" y1="5.5" x2="63.6826" y2="5.5" stroke="#E0E2E7"/>
<line x1="5.87842" y1="25.501" x2="23.5136" y2="25.501" stroke="#E0E2E7"/>
<line x1="19.5947" y1="8.5" x2="63.6826" y2="8.5" stroke="#E0E2E7"/>
<line x1="5.87842" y1="28.501" x2="18.6149" y2="28.501" stroke="#E0E2E7"/>
<line x1="36.25" y1="11.5" x2="47.027" y2="11.5" stroke="#E0E2E7"/>
<path d="M6.18642 22.001V19.393H7.07842C7.21442 19.393 7.33975 19.4036 7.45442 19.425C7.57175 19.4436 7.67308 19.4783 7.75842 19.529C7.84642 19.5796 7.91442 19.6463 7.96242 19.729C8.01308 19.8116 8.03842 19.9156 8.03842 20.041C8.03842 20.0996 8.03042 20.1583 8.01442 20.217C7.99842 20.2756 7.97575 20.3303 7.94642 20.381C7.91708 20.4316 7.88108 20.477 7.83842 20.517C7.79842 20.557 7.75175 20.5863 7.69842 20.605V20.621C7.76508 20.637 7.82642 20.6623 7.88242 20.697C7.93842 20.729 7.98775 20.7703 8.03042 20.821C8.07308 20.8716 8.10642 20.9316 8.13042 21.001C8.15442 21.0676 8.16642 21.145 8.16642 21.233C8.16642 21.3663 8.13975 21.481 8.08642 21.577C8.03575 21.673 7.96375 21.753 7.87042 21.817C7.77975 21.8783 7.67308 21.925 7.55042 21.957C7.42775 21.9863 7.29575 22.001 7.15442 22.001H6.18642ZM6.77442 20.437H7.05042C7.19442 20.437 7.29842 20.409 7.36242 20.353C7.42908 20.297 7.46242 20.2223 7.46242 20.129C7.46242 20.0276 7.42908 19.9556 7.36242 19.913C7.29575 19.8703 7.19308 19.849 7.05442 19.849H6.77442V20.437ZM6.77442 21.545H7.10642C7.42908 21.545 7.59042 21.4276 7.59042 21.193C7.59042 21.0783 7.55042 20.997 7.47042 20.949C7.39042 20.8983 7.26908 20.873 7.10642 20.873H6.77442V21.545ZM8.60829 22.001V19.393H9.19629V22.001H8.60829ZM9.81142 22.001V19.393H10.3994V21.505H11.4314V22.001H9.81142ZM11.8817 22.001V19.393H12.4697V21.505H13.5017V22.001H11.8817ZM15.2608 22.001V19.889H14.5448V19.393H16.5688V19.889H15.8528V22.001H15.2608ZM17.9222 22.049C17.7462 22.049 17.5849 22.0183 17.4382 21.957C17.2942 21.893 17.1702 21.8023 17.0662 21.685C16.9622 21.5676 16.8809 21.425 16.8222 21.257C16.7662 21.089 16.7382 20.8983 16.7382 20.685C16.7382 20.4716 16.7662 20.2823 16.8222 20.117C16.8809 19.949 16.9622 19.809 17.0662 19.697C17.1702 19.5823 17.2942 19.4956 17.4382 19.437C17.5849 19.3756 17.7462 19.345 17.9222 19.345C18.0982 19.345 18.2582 19.3756 18.4022 19.437C18.5489 19.4956 18.6742 19.5823 18.7782 19.697C18.8822 19.8116 18.9622 19.953 19.0182 20.121C19.0769 20.2863 19.1062 20.4743 19.1062 20.685C19.1062 20.8983 19.0769 21.089 19.0182 21.257C18.9622 21.425 18.8822 21.5676 18.7782 21.685C18.6742 21.8023 18.5489 21.893 18.4022 21.957C18.2582 22.0183 18.0982 22.049 17.9222 22.049ZM17.9222 21.541C18.1009 21.541 18.2422 21.465 18.3462 21.313C18.4502 21.1583 18.5022 20.949 18.5022 20.685C18.5022 20.4236 18.4502 20.2196 18.3462 20.073C18.2422 19.9263 18.1009 19.853 17.9222 19.853C17.7435 19.853 17.6022 19.9263 17.4982 20.073C17.3942 20.2196 17.3422 20.4236 17.3422 20.685C17.3422 20.949 17.3942 21.1583 17.4982 21.313C17.6022 21.465 17.7435 21.541 17.9222 21.541Z" fill="#858D9D"/>
<path d="M45.3434 51.197V50.729H45.6034C45.8567 50.729 46.01 50.6343 46.0634 50.445H45.3434V50.173L45.6394 50.149H46.0594C46.03 50.0663 45.9767 50.009 45.8994 49.977C45.8247 49.945 45.726 49.929 45.6034 49.929H45.3434V49.461H46.9274V49.757H46.3994C46.5274 49.8476 46.6087 49.9783 46.6434 50.149H46.9274V50.445H46.6474C46.626 50.6103 46.574 50.7463 46.4914 50.853C46.4087 50.9596 46.3034 51.041 46.1754 51.097L46.8594 52.001H46.1994L45.6274 51.197H45.3434ZM45.3474 57.001V56.525H45.8994V55.057H45.4234V54.693C45.562 54.6663 45.6794 54.6343 45.7754 54.597C45.8714 54.5596 45.9647 54.5143 46.0554 54.461H46.4874V56.525H46.9634V57.001H45.3474ZM48.2367 57.049C48.1007 57.049 47.9767 57.021 47.8647 56.965C47.7527 56.9063 47.6567 56.821 47.5767 56.709C47.4993 56.597 47.438 56.4583 47.3927 56.293C47.35 56.1276 47.3287 55.937 47.3287 55.721C47.3287 55.505 47.35 55.3156 47.3927 55.153C47.438 54.9903 47.4993 54.8543 47.5767 54.745C47.6567 54.633 47.7527 54.5503 47.8647 54.497C47.9767 54.441 48.1007 54.413 48.2367 54.413C48.3727 54.413 48.4967 54.441 48.6087 54.497C48.7207 54.5503 48.8153 54.633 48.8927 54.745C48.9727 54.8543 49.034 54.9903 49.0767 55.153C49.122 55.3156 49.1447 55.505 49.1447 55.721C49.1447 55.937 49.122 56.1276 49.0767 56.293C49.034 56.4583 48.9727 56.597 48.8927 56.709C48.8153 56.821 48.7207 56.9063 48.6087 56.965C48.4967 57.021 48.3727 57.049 48.2367 57.049ZM48.2367 56.593C48.2873 56.593 48.334 56.581 48.3767 56.557C48.4193 56.5303 48.4567 56.4836 48.4887 56.417C48.5207 56.3503 48.5447 56.261 48.5607 56.149C48.5793 56.037 48.5887 55.8943 48.5887 55.721C48.5887 55.5476 48.5793 55.4063 48.5607 55.297C48.5447 55.185 48.5207 55.0983 48.4887 55.037C48.4567 54.973 48.4193 54.929 48.3767 54.905C48.334 54.881 48.2873 54.869 48.2367 54.869C48.1887 54.869 48.1433 54.881 48.1007 54.905C48.058 54.929 48.0207 54.973 47.9887 55.037C47.9567 55.0983 47.9313 55.185 47.9127 55.297C47.894 55.4063 47.8847 55.5476 47.8847 55.721C47.8847 55.8943 47.894 56.037 47.9127 56.149C47.9313 56.261 47.9567 56.3503 47.9887 56.417C48.0207 56.4836 48.058 56.5303 48.1007 56.557C48.1433 56.581 48.1887 56.593 48.2367 56.593ZM50.3499 57.049C50.2139 57.049 50.0899 57.021 49.9779 56.965C49.8659 56.9063 49.7699 56.821 49.6899 56.709C49.6126 56.597 49.5513 56.4583 49.5059 56.293C49.4633 56.1276 49.4419 55.937 49.4419 55.721C49.4419 55.505 49.4633 55.3156 49.5059 55.153C49.5513 54.9903 49.6126 54.8543 49.6899 54.745C49.7699 54.633 49.8659 54.5503 49.9779 54.497C50.0899 54.441 50.2139 54.413 50.3499 54.413C50.4859 54.413 50.6099 54.441 50.7219 54.497C50.8339 54.5503 50.9286 54.633 51.0059 54.745C51.0859 54.8543 51.1473 54.9903 51.1899 55.153C51.2353 55.3156 51.2579 55.505 51.2579 55.721C51.2579 55.937 51.2353 56.1276 51.1899 56.293C51.1473 56.4583 51.0859 56.597 51.0059 56.709C50.9286 56.821 50.8339 56.9063 50.7219 56.965C50.6099 57.021 50.4859 57.049 50.3499 57.049ZM50.3499 56.593C50.4006 56.593 50.4473 56.581 50.4899 56.557C50.5326 56.5303 50.5699 56.4836 50.6019 56.417C50.6339 56.3503 50.6579 56.261 50.6739 56.149C50.6926 56.037 50.7019 55.8943 50.7019 55.721C50.7019 55.5476 50.6926 55.4063 50.6739 55.297C50.6579 55.185 50.6339 55.0983 50.6019 55.037C50.5699 54.973 50.5326 54.929 50.4899 54.905C50.4473 54.881 50.4006 54.869 50.3499 54.869C50.3019 54.869 50.2566 54.881 50.2139 54.905C50.1713 54.929 50.1339 54.973 50.1019 55.037C50.0699 55.0983 50.0446 55.185 50.0259 55.297C50.0073 55.4063 49.9979 55.5476 49.9979 55.721C49.9979 55.8943 50.0073 56.037 50.0259 56.149C50.0446 56.261 50.0699 56.3503 50.1019 56.417C50.1339 56.4836 50.1713 56.5303 50.2139 56.557C50.2566 56.581 50.3019 56.593 50.3499 56.593ZM52.4632 57.049C52.3272 57.049 52.2032 57.021 52.0912 56.965C51.9792 56.9063 51.8832 56.821 51.8032 56.709C51.7259 56.597 51.6646 56.4583 51.6192 56.293C51.5766 56.1276 51.5552 55.937 51.5552 55.721C51.5552 55.505 51.5766 55.3156 51.6192 55.153C51.6646 54.9903 51.7259 54.8543 51.8032 54.745C51.8832 54.633 51.9792 54.5503 52.0912 54.497C52.2032 54.441 52.3272 54.413 52.4632 54.413C52.5992 54.413 52.7232 54.441 52.8352 54.497C52.9472 54.5503 53.0419 54.633 53.1192 54.745C53.1992 54.8543 53.2606 54.9903 53.3032 55.153C53.3486 55.3156 53.3712 55.505 53.3712 55.721C53.3712 55.937 53.3486 56.1276 53.3032 56.293C53.2606 56.4583 53.1992 56.597 53.1192 56.709C53.0419 56.821 52.9472 56.9063 52.8352 56.965C52.7232 57.021 52.5992 57.049 52.4632 57.049ZM52.4632 56.593C52.5139 56.593 52.5606 56.581 52.6032 56.557C52.6459 56.5303 52.6832 56.4836 52.7152 56.417C52.7472 56.3503 52.7712 56.261 52.7872 56.149C52.8059 56.037 52.8152 55.8943 52.8152 55.721C52.8152 55.5476 52.8059 55.4063 52.7872 55.297C52.7712 55.185 52.7472 55.0983 52.7152 55.037C52.6832 54.973 52.6459 54.929 52.6032 54.905C52.5606 54.881 52.5139 54.869 52.4632 54.869C52.4152 54.869 52.3699 54.881 52.3272 54.905C52.2846 54.929 52.2472 54.973 52.2152 55.037C52.1832 55.0983 52.1579 55.185 52.1392 55.297C52.1206 55.4063 52.1112 55.5476 52.1112 55.721C52.1112 55.8943 52.1206 56.037 52.1392 56.149C52.1579 56.261 52.1832 56.3503 52.2152 56.417C52.2472 56.4836 52.2846 56.5303 52.3272 56.557C52.3699 56.581 52.4152 56.593 52.4632 56.593ZM54.1205 57.049C54.0192 57.049 53.9338 57.0143 53.8645 56.945C53.7978 56.873 53.7645 56.785 53.7645 56.681C53.7645 56.5743 53.7978 56.4863 53.8645 56.417C53.9338 56.345 54.0192 56.309 54.1205 56.309C54.2218 56.309 54.3058 56.345 54.3725 56.417C54.4418 56.4863 54.4765 56.5743 54.4765 56.681C54.4765 56.785 54.4418 56.873 54.3725 56.945C54.3058 57.0143 54.2218 57.049 54.1205 57.049ZM55.7757 57.049C55.6397 57.049 55.5157 57.021 55.4037 56.965C55.2917 56.9063 55.1957 56.821 55.1157 56.709C55.0384 56.597 54.9771 56.4583 54.9317 56.293C54.8891 56.1276 54.8677 55.937 54.8677 55.721C54.8677 55.505 54.8891 55.3156 54.9317 55.153C54.9771 54.9903 55.0384 54.8543 55.1157 54.745C55.1957 54.633 55.2917 54.5503 55.4037 54.497C55.5157 54.441 55.6397 54.413 55.7757 54.413C55.9117 54.413 56.0357 54.441 56.1477 54.497C56.2597 54.5503 56.3544 54.633 56.4317 54.745C56.5117 54.8543 56.5731 54.9903 56.6157 55.153C56.6611 55.3156 56.6837 55.505 56.6837 55.721C56.6837 55.937 56.6611 56.1276 56.6157 56.293C56.5731 56.4583 56.5117 56.597 56.4317 56.709C56.3544 56.821 56.2597 56.9063 56.1477 56.965C56.0357 57.021 55.9117 57.049 55.7757 57.049ZM55.7757 56.593C55.8264 56.593 55.8731 56.581 55.9157 56.557C55.9584 56.5303 55.9957 56.4836 56.0277 56.417C56.0597 56.3503 56.0837 56.261 56.0997 56.149C56.1184 56.037 56.1277 55.8943 56.1277 55.721C56.1277 55.5476 56.1184 55.4063 56.0997 55.297C56.0837 55.185 56.0597 55.0983 56.0277 55.037C55.9957 54.973 55.9584 54.929 55.9157 54.905C55.8731 54.881 55.8264 54.869 55.7757 54.869C55.7277 54.869 55.6824 54.881 55.6397 54.905C55.5971 54.929 55.5597 54.973 55.5277 55.037C55.4957 55.0983 55.4704 55.185 55.4517 55.297C55.4331 55.4063 55.4237 55.5476 55.4237 55.721C55.4237 55.8943 55.4331 56.037 55.4517 56.149C55.4704 56.261 55.4957 56.3503 55.5277 56.417C55.5597 56.4836 55.5971 56.5303 55.6397 56.557C55.6824 56.581 55.7277 56.593 55.7757 56.593ZM57.889 57.049C57.753 57.049 57.629 57.021 57.517 56.965C57.405 56.9063 57.309 56.821 57.229 56.709C57.1517 56.597 57.0903 56.4583 57.045 56.293C57.0023 56.1276 56.981 55.937 56.981 55.721C56.981 55.505 57.0023 55.3156 57.045 55.153C57.0903 54.9903 57.1517 54.8543 57.229 54.745C57.309 54.633 57.405 54.5503 57.517 54.497C57.629 54.441 57.753 54.413 57.889 54.413C58.025 54.413 58.149 54.441 58.261 54.497C58.373 54.5503 58.4677 54.633 58.545 54.745C58.625 54.8543 58.6863 54.9903 58.729 55.153C58.7743 55.3156 58.797 55.505 58.797 55.721C58.797 55.937 58.7743 56.1276 58.729 56.293C58.6863 56.4583 58.625 56.597 58.545 56.709C58.4677 56.821 58.373 56.9063 58.261 56.965C58.149 57.021 58.025 57.049 57.889 57.049ZM57.889 56.593C57.9397 56.593 57.9863 56.581 58.029 56.557C58.0717 56.5303 58.109 56.4836 58.141 56.417C58.173 56.3503 58.197 56.261 58.213 56.149C58.2317 56.037 58.241 55.8943 58.241 55.721C58.241 55.5476 58.2317 55.4063 58.213 55.297C58.197 55.185 58.173 55.0983 58.141 55.037C58.109 54.973 58.0717 54.929 58.029 54.905C57.9863 54.881 57.9397 54.869 57.889 54.869C57.841 54.869 57.7957 54.881 57.753 54.905C57.7103 54.929 57.673 54.973 57.641 55.037C57.609 55.0983 57.5837 55.185 57.565 55.297C57.5463 55.4063 57.537 55.5476 57.537 55.721C57.537 55.8943 57.5463 56.037 57.565 56.149C57.5837 56.261 57.609 56.3503 57.641 56.417C57.673 56.4836 57.7103 56.5303 57.753 56.557C57.7957 56.581 57.841 56.593 57.889 56.593Z" fill="#858D9D"/>
<line x1="5.87842" y1="16.5" x2="67.6014" y2="16.5" stroke="#F6F7F7"/>
<line x1="36.75" y1="16" x2="36.75" y2="29" stroke="#F6F7F7"/>
<line x1="40.1689" y1="21.5" x2="47.0271" y2="21.5" stroke="#C2C6CE"/>
<line x1="49.9663" y1="21.5" x2="56.8244" y2="21.5" stroke="#C2C6CE"/>
<line x1="59.7637" y1="21.5" x2="66.6218" y2="21.5" stroke="#C2C6CE"/>
<line x1="40.1689" y1="24" x2="44.0879" y2="24" stroke="#C2C6CE"/>
<line x1="49.9663" y1="24" x2="53.8852" y2="24" stroke="#C2C6CE"/>
<line x1="59.7637" y1="24" x2="63.6826" y2="24" stroke="#C2C6CE"/>
</svg>
