<svg width="73" height="94" viewBox="0 0 73 94" fill="none" xmlns="http://www.w3.org/2000/svg">
<rect width="72.5" height="94" rx="4" fill="white"/>
<rect x="1" y="21" width="70.5" height="7" fill="#E0E2E7"/>
<line x1="5" y1="72.5" x2="23" y2="72.5" stroke="#E0E2E7"/>
<line x1="48" y1="72.5" x2="66" y2="72.5" stroke="#E0E2E7"/>
<line x1="5" y1="82.5" x2="23" y2="82.5" stroke="#E0E2E7"/>
<line x1="48" y1="78.5" x2="66" y2="78.5" stroke="#E0E2E7"/>
<line x1="5" y1="75.5" x2="18" y2="75.5" stroke="#E0E2E7"/>
<line x1="48" y1="75.5" x2="66" y2="75.5" stroke="#E0E2E7"/>
<line x1="5" y1="85.5" x2="18" y2="85.5" stroke="#E0E2E7"/>
<line x1="48" y1="81.5002" x2="61" y2="81.5002" stroke="#E0E2E7"/>
<path d="M48.276 86.196V85.728H48.536C48.7893 85.728 48.9427 85.6333 48.996 85.444H48.276V85.172L48.572 85.148H48.992C48.9627 85.0653 48.9093 85.008 48.832 84.976C48.7573 84.944 48.6587 84.928 48.536 84.928H48.276V84.46H49.86V84.756H49.332C49.46 84.8467 49.5413 84.9773 49.576 85.148H49.86V85.444H49.58C49.5587 85.6093 49.5067 85.7453 49.424 85.852C49.3413 85.9587 49.236 86.04 49.108 86.096L49.792 87H49.132L48.56 86.196H48.276ZM51.1941 87V86.524H51.7461V85.056H51.2701V84.692C51.4087 84.6653 51.5261 84.6333 51.6221 84.596C51.7181 84.5587 51.8114 84.5133 51.9021 84.46H52.3341V86.524H52.8101V87H51.1941ZM54.0833 87.048C53.9473 87.048 53.8233 87.02 53.7113 86.964C53.5993 86.9053 53.5033 86.82 53.4233 86.708C53.346 86.596 53.2847 86.4573 53.2393 86.292C53.1967 86.1267 53.1753 85.936 53.1753 85.72C53.1753 85.504 53.1967 85.3147 53.2393 85.152C53.2847 84.9893 53.346 84.8533 53.4233 84.744C53.5033 84.632 53.5993 84.5493 53.7113 84.496C53.8233 84.44 53.9473 84.412 54.0833 84.412C54.2193 84.412 54.3433 84.44 54.4553 84.496C54.5673 84.5493 54.662 84.632 54.7393 84.744C54.8193 84.8533 54.8807 84.9893 54.9233 85.152C54.9687 85.3147 54.9913 85.504 54.9913 85.72C54.9913 85.936 54.9687 86.1267 54.9233 86.292C54.8807 86.4573 54.8193 86.596 54.7393 86.708C54.662 86.82 54.5673 86.9053 54.4553 86.964C54.3433 87.02 54.2193 87.048 54.0833 87.048ZM54.0833 86.592C54.134 86.592 54.1807 86.58 54.2233 86.556C54.266 86.5293 54.3033 86.4827 54.3353 86.416C54.3673 86.3493 54.3913 86.26 54.4073 86.148C54.426 86.036 54.4353 85.8933 54.4353 85.72C54.4353 85.5467 54.426 85.4053 54.4073 85.296C54.3913 85.184 54.3673 85.0973 54.3353 85.036C54.3033 84.972 54.266 84.928 54.2233 84.904C54.1807 84.88 54.134 84.868 54.0833 84.868C54.0353 84.868 53.99 84.88 53.9473 84.904C53.9047 84.928 53.8673 84.972 53.8353 85.036C53.8033 85.0973 53.778 85.184 53.7593 85.296C53.7407 85.4053 53.7313 85.5467 53.7313 85.72C53.7313 85.8933 53.7407 86.036 53.7593 86.148C53.778 86.26 53.8033 86.3493 53.8353 86.416C53.8673 86.4827 53.9047 86.5293 53.9473 86.556C53.99 86.58 54.0353 86.592 54.0833 86.592ZM56.1966 87.048C56.0606 87.048 55.9366 87.02 55.8246 86.964C55.7126 86.9053 55.6166 86.82 55.5366 86.708C55.4593 86.596 55.398 86.4573 55.3526 86.292C55.31 86.1267 55.2886 85.936 55.2886 85.72C55.2886 85.504 55.31 85.3147 55.3526 85.152C55.398 84.9893 55.4593 84.8533 55.5366 84.744C55.6166 84.632 55.7126 84.5493 55.8246 84.496C55.9366 84.44 56.0606 84.412 56.1966 84.412C56.3326 84.412 56.4566 84.44 56.5686 84.496C56.6806 84.5493 56.7753 84.632 56.8526 84.744C56.9326 84.8533 56.994 84.9893 57.0366 85.152C57.082 85.3147 57.1046 85.504 57.1046 85.72C57.1046 85.936 57.082 86.1267 57.0366 86.292C56.994 86.4573 56.9326 86.596 56.8526 86.708C56.7753 86.82 56.6806 86.9053 56.5686 86.964C56.4566 87.02 56.3326 87.048 56.1966 87.048ZM56.1966 86.592C56.2473 86.592 56.294 86.58 56.3366 86.556C56.3793 86.5293 56.4166 86.4827 56.4486 86.416C56.4806 86.3493 56.5046 86.26 56.5206 86.148C56.5393 86.036 56.5486 85.8933 56.5486 85.72C56.5486 85.5467 56.5393 85.4053 56.5206 85.296C56.5046 85.184 56.4806 85.0973 56.4486 85.036C56.4166 84.972 56.3793 84.928 56.3366 84.904C56.294 84.88 56.2473 84.868 56.1966 84.868C56.1486 84.868 56.1033 84.88 56.0606 84.904C56.018 84.928 55.9806 84.972 55.9486 85.036C55.9166 85.0973 55.8913 85.184 55.8726 85.296C55.854 85.4053 55.8446 85.5467 55.8446 85.72C55.8446 85.8933 55.854 86.036 55.8726 86.148C55.8913 86.26 55.9166 86.3493 55.9486 86.416C55.9806 86.4827 56.018 86.5293 56.0606 86.556C56.1033 86.58 56.1486 86.592 56.1966 86.592ZM58.3099 87.048C58.1739 87.048 58.0499 87.02 57.9379 86.964C57.8259 86.9053 57.7299 86.82 57.6499 86.708C57.5726 86.596 57.5112 86.4573 57.4659 86.292C57.4232 86.1267 57.4019 85.936 57.4019 85.72C57.4019 85.504 57.4232 85.3147 57.4659 85.152C57.5112 84.9893 57.5726 84.8533 57.6499 84.744C57.7299 84.632 57.8259 84.5493 57.9379 84.496C58.0499 84.44 58.1739 84.412 58.3099 84.412C58.4459 84.412 58.5699 84.44 58.6819 84.496C58.7939 84.5493 58.8886 84.632 58.9659 84.744C59.0459 84.8533 59.1072 84.9893 59.1499 85.152C59.1952 85.3147 59.2179 85.504 59.2179 85.72C59.2179 85.936 59.1952 86.1267 59.1499 86.292C59.1072 86.4573 59.0459 86.596 58.9659 86.708C58.8886 86.82 58.7939 86.9053 58.6819 86.964C58.5699 87.02 58.4459 87.048 58.3099 87.048ZM58.3099 86.592C58.3606 86.592 58.4072 86.58 58.4499 86.556C58.4926 86.5293 58.5299 86.4827 58.5619 86.416C58.5939 86.3493 58.6179 86.26 58.6339 86.148C58.6526 86.036 58.6619 85.8933 58.6619 85.72C58.6619 85.5467 58.6526 85.4053 58.6339 85.296C58.6179 85.184 58.5939 85.0973 58.5619 85.036C58.5299 84.972 58.4926 84.928 58.4499 84.904C58.4072 84.88 58.3606 84.868 58.3099 84.868C58.2619 84.868 58.2166 84.88 58.1739 84.904C58.1312 84.928 58.0939 84.972 58.0619 85.036C58.0299 85.0973 58.0046 85.184 57.9859 85.296C57.9672 85.4053 57.9579 85.5467 57.9579 85.72C57.9579 85.8933 57.9672 86.036 57.9859 86.148C58.0046 86.26 58.0299 86.3493 58.0619 86.416C58.0939 86.4827 58.1312 86.5293 58.1739 86.556C58.2166 86.58 58.2619 86.592 58.3099 86.592ZM59.9672 87.048C59.8659 87.048 59.7805 87.0133 59.7112 86.944C59.6445 86.872 59.6112 86.784 59.6112 86.68C59.6112 86.5733 59.6445 86.4853 59.7112 86.416C59.7805 86.344 59.8659 86.308 59.9672 86.308C60.0685 86.308 60.1525 86.344 60.2192 86.416C60.2885 86.4853 60.3232 86.5733 60.3232 86.68C60.3232 86.784 60.2885 86.872 60.2192 86.944C60.1525 87.0133 60.0685 87.048 59.9672 87.048ZM61.6224 87.048C61.4864 87.048 61.3624 87.02 61.2504 86.964C61.1384 86.9053 61.0424 86.82 60.9624 86.708C60.8851 86.596 60.8237 86.4573 60.7784 86.292C60.7357 86.1267 60.7144 85.936 60.7144 85.72C60.7144 85.504 60.7357 85.3147 60.7784 85.152C60.8237 84.9893 60.8851 84.8533 60.9624 84.744C61.0424 84.632 61.1384 84.5493 61.2504 84.496C61.3624 84.44 61.4864 84.412 61.6224 84.412C61.7584 84.412 61.8824 84.44 61.9944 84.496C62.1064 84.5493 62.2011 84.632 62.2784 84.744C62.3584 84.8533 62.4197 84.9893 62.4624 85.152C62.5077 85.3147 62.5304 85.504 62.5304 85.72C62.5304 85.936 62.5077 86.1267 62.4624 86.292C62.4197 86.4573 62.3584 86.596 62.2784 86.708C62.2011 86.82 62.1064 86.9053 61.9944 86.964C61.8824 87.02 61.7584 87.048 61.6224 87.048ZM61.6224 86.592C61.6731 86.592 61.7197 86.58 61.7624 86.556C61.8051 86.5293 61.8424 86.4827 61.8744 86.416C61.9064 86.3493 61.9304 86.26 61.9464 86.148C61.9651 86.036 61.9744 85.8933 61.9744 85.72C61.9744 85.5467 61.9651 85.4053 61.9464 85.296C61.9304 85.184 61.9064 85.0973 61.8744 85.036C61.8424 84.972 61.8051 84.928 61.7624 84.904C61.7197 84.88 61.6731 84.868 61.6224 84.868C61.5744 84.868 61.5291 84.88 61.4864 84.904C61.4437 84.928 61.4064 84.972 61.3744 85.036C61.3424 85.0973 61.3171 85.184 61.2984 85.296C61.2797 85.4053 61.2704 85.5467 61.2704 85.72C61.2704 85.8933 61.2797 86.036 61.2984 86.148C61.3171 86.26 61.3424 86.3493 61.3744 86.416C61.4064 86.4827 61.4437 86.5293 61.4864 86.556C61.5291 86.58 61.5744 86.592 61.6224 86.592ZM63.7357 87.048C63.5997 87.048 63.4757 87.02 63.3637 86.964C63.2517 86.9053 63.1557 86.82 63.0757 86.708C62.9984 86.596 62.937 86.4573 62.8917 86.292C62.849 86.1267 62.8277 85.936 62.8277 85.72C62.8277 85.504 62.849 85.3147 62.8917 85.152C62.937 84.9893 62.9984 84.8533 63.0757 84.744C63.1557 84.632 63.2517 84.5493 63.3637 84.496C63.4757 84.44 63.5997 84.412 63.7357 84.412C63.8717 84.412 63.9957 84.44 64.1077 84.496C64.2197 84.5493 64.3144 84.632 64.3917 84.744C64.4717 84.8533 64.533 84.9893 64.5757 85.152C64.621 85.3147 64.6437 85.504 64.6437 85.72C64.6437 85.936 64.621 86.1267 64.5757 86.292C64.533 86.4573 64.4717 86.596 64.3917 86.708C64.3144 86.82 64.2197 86.9053 64.1077 86.964C63.9957 87.02 63.8717 87.048 63.7357 87.048ZM63.7357 86.592C63.7864 86.592 63.833 86.58 63.8757 86.556C63.9184 86.5293 63.9557 86.4827 63.9877 86.416C64.0197 86.3493 64.0437 86.26 64.0597 86.148C64.0784 86.036 64.0877 85.8933 64.0877 85.72C64.0877 85.5467 64.0784 85.4053 64.0597 85.296C64.0437 85.184 64.0197 85.0973 63.9877 85.036C63.9557 84.972 63.9184 84.928 63.8757 84.904C63.833 84.88 63.7864 84.868 63.7357 84.868C63.6877 84.868 63.6424 84.88 63.5997 84.904C63.557 84.928 63.5197 84.972 63.4877 85.036C63.4557 85.0973 63.4304 85.184 63.4117 85.296C63.393 85.4053 63.3837 85.5467 63.3837 85.72C63.3837 85.8933 63.393 86.036 63.4117 86.148C63.4304 86.26 63.4557 86.3493 63.4877 86.416C63.5197 86.4827 63.557 86.5293 63.5997 86.556C63.6424 86.58 63.6877 86.592 63.7357 86.592Z" fill="#858D9D"/>
<rect x="5" y="7" width="10" height="10" rx="1" fill="#DDDEE0"/>
<rect y="40" width="72.5" height="28" fill="#E0E2E7"/>
<path d="M0 64H72.5V68H0V64Z" fill="#C2C6CE"/>
<line x1="17" y1="8.5" x2="33" y2="8.5" stroke="#E0E2E7"/>
<line x1="40" y1="8.5" x2="47" y2="8.5" stroke="#C2C6CE"/>
<line x1="40" y1="14.5" x2="47" y2="14.5" stroke="#E0E2E7"/>
<line x1="50" y1="8.5" x2="57" y2="8.5" stroke="#C2C6CE"/>
<line x1="50" y1="14.5" x2="57" y2="14.5" stroke="#E0E2E7"/>
<line x1="60" y1="8.5" x2="67" y2="8.5" stroke="#C2C6CE"/>
<line x1="60" y1="14.5" x2="67" y2="14.5" stroke="#E0E2E7"/>
<line x1="36.5" y1="7" x2="36.5" y2="36" stroke="#F6F7F7"/>
<line x1="36.5" y1="71" x2="36.5" y2="88" stroke="#F0F1F3"/>
<line x1="27.5" y1="40" x2="27.5" y2="68" stroke="#F6F7F7"/>
<line x1="39.5" y1="40" x2="39.5" y2="68" stroke="#F6F7F7"/>
<line x1="51.5" y1="40" x2="51.5" y2="68" stroke="#F6F7F7"/>
<line x1="9.5" y1="40" x2="9.5" y2="68" stroke="#F6F7F7"/>
<line x1="5" y1="34.5" x2="16" y2="34.5" stroke="#E0E2E7"/>
<line x1="40" y1="34.5" x2="51" y2="34.5" stroke="#E0E2E7"/>
<line x1="5" y1="31.5" x2="33" y2="31.5" stroke="#E0E2E7"/>
<line x1="40" y1="31.5" x2="67" y2="31.5" stroke="#E0E2E7"/>
<line y1="43.5" x2="72.5" y2="43.5" stroke="#F6F7F7"/>
<line x1="17" y1="14.5" x2="33" y2="14.5" stroke="#E0E2E7"/>
<line x1="17" y1="11.5" x2="33" y2="11.5" stroke="#E0E2E7"/>
<line x1="40" y1="11" x2="44" y2="11" stroke="#C2C6CE"/>
<line x1="40" y1="17" x2="44" y2="17" stroke="#E0E2E7"/>
<line x1="50" y1="11" x2="54" y2="11" stroke="#C2C6CE"/>
<line x1="50" y1="17" x2="54" y2="17" stroke="#E0E2E7"/>
<line x1="60" y1="11" x2="64" y2="11" stroke="#C2C6CE"/>
<line x1="60" y1="17" x2="64" y2="17" stroke="#E0E2E7"/>
<line x1="17" y1="17.5" x2="23" y2="17.5" stroke="#E0E2E7"/>
<path d="M5.308 26V23.392H6.2C6.38133 23.392 6.544 23.412 6.688 23.452C6.832 23.4893 6.94667 23.5547 7.032 23.648C7.11733 23.7413 7.16 23.872 7.16 24.04C7.16 24.1547 7.12933 24.268 7.068 24.38C7.00933 24.4893 6.92667 24.564 6.82 24.604V24.62C6.95333 24.6547 7.064 24.7227 7.152 24.824C7.24267 24.9227 7.288 25.0587 7.288 25.232C7.288 25.4107 7.24267 25.556 7.152 25.668C7.06133 25.78 6.94 25.864 6.788 25.92C6.636 25.9733 6.46533 26 6.276 26H5.308ZM5.896 24.436H6.172C6.316 24.436 6.42 24.408 6.484 24.352C6.55067 24.296 6.584 24.2213 6.584 24.128C6.584 24.0267 6.55067 23.9547 6.484 23.912C6.41733 23.8693 6.31467 23.848 6.176 23.848H5.896V24.436ZM5.896 25.544H6.228C6.55067 25.544 6.712 25.4267 6.712 25.192C6.712 25.0773 6.672 24.996 6.592 24.948C6.512 24.8973 6.39067 24.872 6.228 24.872H5.896V25.544ZM7.72988 26V23.392H8.31788V26H7.72988ZM8.933 26V23.392H9.521V25.504H10.553V26H8.933ZM11.0033 26V23.392H11.5913V25.504H12.6233V26H11.0033ZM14.3824 26V23.888H13.6664V23.392H15.6904V23.888H14.9744V26H14.3824ZM17.0438 26.048C16.8091 26.048 16.6024 25.9933 16.4238 25.884C16.2478 25.7747 16.1091 25.6187 16.0078 25.416C15.9091 25.2107 15.8598 24.9667 15.8598 24.684C15.8598 24.3987 15.9091 24.1573 16.0078 23.96C16.1091 23.76 16.2478 23.608 16.4238 23.504C16.6024 23.3973 16.8091 23.344 17.0438 23.344C17.2784 23.344 17.4838 23.3973 17.6598 23.504C17.8384 23.608 17.9771 23.76 18.0758 23.96C18.1771 24.16 18.2278 24.4013 18.2278 24.684C18.2278 24.9667 18.1771 25.2107 18.0758 25.416C17.9771 25.6187 17.8384 25.7747 17.6598 25.884C17.4838 25.9933 17.2784 26.048 17.0438 26.048ZM17.0438 25.54C17.2224 25.54 17.3638 25.4627 17.4678 25.308C17.5718 25.1533 17.6238 24.9453 17.6238 24.684C17.6238 24.4227 17.5718 24.2187 17.4678 24.072C17.3638 23.9253 17.2224 23.852 17.0438 23.852C16.8651 23.852 16.7238 23.9253 16.6198 24.072C16.5158 24.2187 16.4638 24.4227 16.4638 24.684C16.4638 24.9453 16.5158 25.1533 16.6198 25.308C16.7238 25.4627 16.8651 25.54 17.0438 25.54Z" fill="#858D9D"/>
<path d="M41.104 26.048C40.9333 26.048 40.7627 26.016 40.592 25.952C40.424 25.888 40.2733 25.7947 40.14 25.672L40.476 25.268C40.5693 25.348 40.6733 25.4133 40.788 25.464C40.9027 25.5147 41.0133 25.54 41.12 25.54C41.2427 25.54 41.3333 25.5173 41.392 25.472C41.4533 25.4267 41.484 25.3653 41.484 25.288C41.484 25.2053 41.4493 25.1453 41.38 25.108C41.3133 25.068 41.2227 25.024 41.108 24.976L40.768 24.832C40.68 24.7947 40.596 24.7453 40.516 24.684C40.436 24.62 40.3707 24.5413 40.32 24.448C40.2693 24.3547 40.244 24.2453 40.244 24.12C40.244 23.976 40.2827 23.8453 40.36 23.728C40.44 23.6107 40.5493 23.5173 40.688 23.448C40.8293 23.3787 40.9907 23.344 41.172 23.344C41.3213 23.344 41.4707 23.3733 41.62 23.432C41.7693 23.4907 41.9 23.576 42.012 23.688L41.712 24.06C41.6267 23.9933 41.5413 23.9427 41.456 23.908C41.3707 23.8707 41.276 23.852 41.172 23.852C41.0707 23.852 40.9893 23.8733 40.928 23.916C40.8693 23.956 40.84 24.0133 40.84 24.088C40.84 24.168 40.8773 24.228 40.952 24.268C41.0293 24.308 41.124 24.3507 41.236 24.396L41.572 24.532C41.7293 24.596 41.8547 24.684 41.948 24.796C42.0413 24.908 42.088 25.056 42.088 25.24C42.088 25.384 42.0493 25.5173 41.972 25.64C41.8947 25.7627 41.7827 25.8613 41.636 25.936C41.4893 26.0107 41.312 26.048 41.104 26.048ZM42.5307 26V23.392H43.1187V24.396H44.0187V23.392H44.6107V26H44.0187V24.912H43.1187V26H42.5307ZM45.226 26V23.392H45.814V26H45.226ZM46.4291 26V23.392H47.3251C47.5171 23.392 47.6904 23.4187 47.8451 23.472C48.0024 23.5227 48.1278 23.6093 48.2211 23.732C48.3144 23.8547 48.3611 24.0213 48.3611 24.232C48.3611 24.4347 48.3144 24.6013 48.2211 24.732C48.1278 24.8627 48.0038 24.96 47.8491 25.024C47.6944 25.0853 47.5251 25.116 47.3411 25.116H47.0171V26H46.4291ZM47.0171 24.648H47.3051C47.6251 24.648 47.7851 24.5093 47.7851 24.232C47.7851 24.096 47.7424 24 47.6571 23.944C47.5718 23.888 47.4491 23.86 47.2891 23.86H47.0171V24.648ZM50.1207 26V23.888H49.4047V23.392H51.4287V23.888H50.7127V26H50.1207ZM52.7821 26.048C52.5474 26.048 52.3407 25.9933 52.1621 25.884C51.9861 25.7747 51.8474 25.6187 51.7461 25.416C51.6474 25.2107 51.5981 24.9667 51.5981 24.684C51.5981 24.3987 51.6474 24.1573 51.7461 23.96C51.8474 23.76 51.9861 23.608 52.1621 23.504C52.3407 23.3973 52.5474 23.344 52.7821 23.344C53.0167 23.344 53.2221 23.3973 53.3981 23.504C53.5767 23.608 53.7154 23.76 53.8141 23.96C53.9154 24.16 53.9661 24.4013 53.9661 24.684C53.9661 24.9667 53.9154 25.2107 53.8141 25.416C53.7154 25.6187 53.5767 25.7747 53.3981 25.884C53.2221 25.9933 53.0167 26.048 52.7821 26.048ZM52.7821 25.54C52.9607 25.54 53.1021 25.4627 53.2061 25.308C53.3101 25.1533 53.3621 24.9453 53.3621 24.684C53.3621 24.4227 53.3101 24.2187 53.2061 24.072C53.1021 23.9253 52.9607 23.852 52.7821 23.852C52.6034 23.852 52.4621 23.9253 52.3581 24.072C52.2541 24.2187 52.2021 24.4227 52.2021 24.684C52.2021 24.9453 52.2541 25.1533 52.3581 25.308C52.4621 25.4627 52.6034 25.54 52.7821 25.54Z" fill="#858D9D"/>
</svg>
