<svg width="73" height="94" viewBox="0 0 73 94" fill="none" xmlns="http://www.w3.org/2000/svg">
<rect width="72.5" height="94" rx="4" fill="white"/>
<rect x="5" y="6.99902" width="10" height="10" rx="1" fill="#DDDEE0"/>
<rect x="5" y="19.999" width="62" height="8" rx="1" fill="#E0E2E7"/>
<rect x="5" y="44.4053" width="62" height="24" rx="1" fill="#E0E2E7"/>
<path d="M5 63.999H67V66.999C67 67.5513 66.5523 67.999 66 67.999H6C5.44771 67.999 5 67.5513 5 66.999V63.999Z" fill="#C2C6CE"/>
<line x1="21.0703" y1="44.4053" x2="21.0703" y2="67.9678" stroke="#F6F7F7" stroke-width="0.90625"/>
<line x1="32.8516" y1="44.4053" x2="32.8516" y2="67.9678" stroke="#F6F7F7" stroke-width="0.90625"/>
<line x1="44.6328" y1="44.4053" x2="44.6328" y2="67.9678" stroke="#F6F7F7" stroke-width="0.90625"/>
<line x1="56.4141" y1="44.4053" x2="56.4141" y2="67.9678" stroke="#F6F7F7" stroke-width="0.90625"/>
<line x1="9.28906" y1="44.4053" x2="9.28906" y2="67.9678" stroke="#F6F7F7" stroke-width="0.90625"/>
<line x1="5.21094" y1="48.4834" x2="66.8359" y2="48.4834" stroke="#F6F7F7" stroke-width="0.90625"/>
<line x1="17" y1="8.49902" x2="66" y2="8.49902" stroke="#E0E2E7"/>
<line x1="5" y1="36.499" x2="23" y2="36.499" stroke="#E0E2E7"/>
<line x1="5" y1="71.499" x2="23" y2="71.499" stroke="#E0E2E7"/>
<line x1="48" y1="71.499" x2="66" y2="71.499" stroke="#E0E2E7"/>
<line x1="5" y1="81.499" x2="23" y2="81.499" stroke="#E0E2E7"/>
<line x1="48" y1="77.499" x2="66" y2="77.499" stroke="#E0E2E7"/>
<line x1="9" y1="22.4992" x2="24" y2="22.4992" stroke="#F6F7F7"/>
<line x1="29" y1="22.4992" x2="44" y2="22.4992" stroke="#F6F7F7"/>
<line x1="49" y1="22.4992" x2="64" y2="22.4992" stroke="#F6F7F7"/>
<line x1="27" y1="36.499" x2="45" y2="36.499" stroke="#E0E2E7"/>
<line x1="49" y1="36.499" x2="67" y2="36.499" stroke="#E0E2E7"/>
<line x1="17" y1="11.499" x2="66" y2="11.499" stroke="#E0E2E7"/>
<line x1="5" y1="39.499" x2="18" y2="39.499" stroke="#E0E2E7"/>
<line x1="5" y1="74.499" x2="18" y2="74.499" stroke="#E0E2E7"/>
<line x1="48" y1="74.499" x2="66" y2="74.499" stroke="#E0E2E7"/>
<line x1="5" y1="84.499" x2="18" y2="84.499" stroke="#E0E2E7"/>
<line x1="48" y1="80.4992" x2="61" y2="80.4992" stroke="#E0E2E7"/>
<line x1="9" y1="25.499" x2="20" y2="25.499" stroke="#F6F7F7"/>
<line x1="29" y1="25.499" x2="40" y2="25.499" stroke="#F6F7F7"/>
<line x1="49" y1="25.499" x2="60" y2="25.499" stroke="#F6F7F7"/>
<line x1="27" y1="39.499" x2="39" y2="39.499" stroke="#E0E2E7"/>
<line x1="49" y1="39.499" x2="62" y2="39.499" stroke="#E0E2E7"/>
<line x1="17" y1="14.499" x2="30" y2="14.499" stroke="#E0E2E7"/>
<path d="M5.308 32.999V30.391H6.2C6.336 30.391 6.46133 30.4017 6.576 30.423C6.69333 30.4417 6.79467 30.4764 6.88 30.527C6.968 30.5777 7.036 30.6444 7.084 30.727C7.13467 30.8097 7.16 30.9137 7.16 31.039C7.16 31.0977 7.152 31.1564 7.136 31.215C7.12 31.2737 7.09733 31.3284 7.068 31.379C7.03867 31.4297 7.00267 31.475 6.96 31.515C6.92 31.555 6.87333 31.5844 6.82 31.603V31.619C6.88667 31.635 6.948 31.6604 7.004 31.695C7.06 31.727 7.10933 31.7684 7.152 31.819C7.19467 31.8697 7.228 31.9297 7.252 31.999C7.276 32.0657 7.288 32.143 7.288 32.231C7.288 32.3644 7.26133 32.479 7.208 32.575C7.15733 32.671 7.08533 32.751 6.992 32.815C6.90133 32.8764 6.79467 32.923 6.672 32.955C6.54933 32.9844 6.41733 32.999 6.276 32.999H5.308ZM5.896 31.435H6.172C6.316 31.435 6.42 31.407 6.484 31.351C6.55067 31.295 6.584 31.2204 6.584 31.127C6.584 31.0257 6.55067 30.9537 6.484 30.911C6.41733 30.8684 6.31467 30.847 6.176 30.847H5.896V31.435ZM5.896 32.543H6.228C6.55067 32.543 6.712 32.4257 6.712 32.191C6.712 32.0764 6.672 31.995 6.592 31.947C6.512 31.8964 6.39067 31.871 6.228 31.871H5.896V32.543ZM7.72988 32.999V30.391H8.31788V32.999H7.72988ZM8.933 32.999V30.391H9.521V32.503H10.553V32.999H8.933ZM11.0033 32.999V30.391H11.5913V32.503H12.6233V32.999H11.0033ZM14.3824 32.999V30.887H13.6664V30.391H15.6904V30.887H14.9744V32.999H14.3824ZM17.0438 33.047C16.8678 33.047 16.7064 33.0164 16.5598 32.955C16.4158 32.891 16.2918 32.8004 16.1878 32.683C16.0838 32.5657 16.0024 32.423 15.9438 32.255C15.8878 32.087 15.8598 31.8964 15.8598 31.683C15.8598 31.4697 15.8878 31.2804 15.9438 31.115C16.0024 30.947 16.0838 30.807 16.1878 30.695C16.2918 30.5804 16.4158 30.4937 16.5598 30.435C16.7064 30.3737 16.8678 30.343 17.0438 30.343C17.2198 30.343 17.3798 30.3737 17.5238 30.435C17.6704 30.4937 17.7958 30.5804 17.8998 30.695C18.0038 30.8097 18.0838 30.951 18.1398 31.119C18.1984 31.2844 18.2278 31.4724 18.2278 31.683C18.2278 31.8964 18.1984 32.087 18.1398 32.255C18.0838 32.423 18.0038 32.5657 17.8998 32.683C17.7958 32.8004 17.6704 32.891 17.5238 32.955C17.3798 33.0164 17.2198 33.047 17.0438 33.047ZM17.0438 32.539C17.2224 32.539 17.3638 32.463 17.4678 32.311C17.5718 32.1564 17.6238 31.947 17.6238 31.683C17.6238 31.4217 17.5718 31.2177 17.4678 31.071C17.3638 30.9244 17.2224 30.851 17.0438 30.851C16.8651 30.851 16.7238 30.9244 16.6198 31.071C16.5158 31.2177 16.4638 31.4217 16.4638 31.683C16.4638 31.947 16.5158 32.1564 16.6198 32.311C16.7238 32.463 16.8651 32.539 17.0438 32.539Z" fill="#858D9D"/>
<path d="M28.104 33.047C27.9333 33.047 27.7627 33.0164 27.592 32.955C27.424 32.891 27.2733 32.7964 27.14 32.671L27.476 32.267C27.5693 32.347 27.672 32.4124 27.784 32.463C27.8987 32.5137 28.0107 32.539 28.12 32.539C28.2427 32.539 28.3333 32.5164 28.392 32.471C28.4533 32.4257 28.484 32.3644 28.484 32.287C28.484 32.247 28.4747 32.2124 28.456 32.183C28.44 32.1537 28.4147 32.1284 28.38 32.107C28.348 32.083 28.308 32.0617 28.26 32.043C28.2147 32.0217 28.164 31.999 28.108 31.975L27.768 31.831C27.7013 31.8044 27.636 31.7697 27.572 31.727C27.5107 31.6844 27.4547 31.635 27.404 31.579C27.356 31.5204 27.3173 31.4537 27.288 31.379C27.2587 31.3017 27.244 31.215 27.244 31.119C27.244 31.0124 27.2667 30.9124 27.312 30.819C27.3573 30.723 27.4213 30.6404 27.504 30.571C27.5867 30.499 27.684 30.443 27.796 30.403C27.9107 30.363 28.036 30.343 28.172 30.343C28.324 30.343 28.4733 30.3724 28.62 30.431C28.7693 30.4897 28.9 30.575 29.012 30.687L28.712 31.059C28.6267 30.9924 28.5413 30.9417 28.456 30.907C28.3707 30.8697 28.276 30.851 28.172 30.851C28.0707 30.851 27.9893 30.8724 27.928 30.915C27.8693 30.955 27.84 31.0124 27.84 31.087C27.84 31.127 27.8493 31.1617 27.868 31.191C27.8893 31.2177 27.9173 31.243 27.952 31.267C27.9893 31.2884 28.032 31.3097 28.08 31.331C28.128 31.3497 28.18 31.371 28.236 31.395L28.572 31.531C28.732 31.595 28.8573 31.683 28.948 31.795C29.0413 31.907 29.088 32.055 29.088 32.239C29.088 32.3484 29.0653 32.4524 29.02 32.551C28.9773 32.647 28.9133 32.7324 28.828 32.807C28.7453 32.879 28.6427 32.9377 28.52 32.983C28.3973 33.0257 28.2587 33.047 28.104 33.047ZM29.5307 32.999V30.391H30.1187V31.395H31.0187V30.391H31.6107V32.999H31.0187V31.911H30.1187V32.999H29.5307ZM32.226 32.999V30.391H32.814V32.999H32.226ZM33.4291 32.999V30.391H34.3251C34.4691 30.391 34.6038 30.4057 34.7291 30.435C34.8544 30.4617 34.9638 30.5084 35.0571 30.575C35.1504 30.639 35.2238 30.7257 35.2771 30.835C35.3331 30.9417 35.3611 31.0737 35.3611 31.231C35.3611 31.383 35.3331 31.515 35.2771 31.627C35.2238 31.739 35.1504 31.831 35.0571 31.903C34.9638 31.975 34.8558 32.0284 34.7331 32.063C34.6104 32.0977 34.4798 32.115 34.3411 32.115H34.0171V32.999H33.4291ZM34.0171 31.647H34.3051C34.6251 31.647 34.7851 31.5084 34.7851 31.231C34.7851 31.095 34.7424 30.999 34.6571 30.943C34.5718 30.887 34.4491 30.859 34.2891 30.859H34.0171V31.647ZM37.1207 32.999V30.887H36.4047V30.391H38.4287V30.887H37.7127V32.999H37.1207ZM39.7821 33.047C39.6061 33.047 39.4447 33.0164 39.2981 32.955C39.1541 32.891 39.0301 32.8004 38.9261 32.683C38.8221 32.5657 38.7407 32.423 38.6821 32.255C38.6261 32.087 38.5981 31.8964 38.5981 31.683C38.5981 31.4697 38.6261 31.2804 38.6821 31.115C38.7407 30.947 38.8221 30.807 38.9261 30.695C39.0301 30.5804 39.1541 30.4937 39.2981 30.435C39.4447 30.3737 39.6061 30.343 39.7821 30.343C39.9581 30.343 40.1181 30.3737 40.2621 30.435C40.4087 30.4937 40.5341 30.5804 40.6381 30.695C40.7421 30.8097 40.8221 30.951 40.8781 31.119C40.9367 31.2844 40.9661 31.4724 40.9661 31.683C40.9661 31.8964 40.9367 32.087 40.8781 32.255C40.8221 32.423 40.7421 32.5657 40.6381 32.683C40.5341 32.8004 40.4087 32.891 40.2621 32.955C40.1181 33.0164 39.9581 33.047 39.7821 33.047ZM39.7821 32.539C39.9607 32.539 40.1021 32.463 40.2061 32.311C40.3101 32.1564 40.3621 31.947 40.3621 31.683C40.3621 31.4217 40.3101 31.2177 40.2061 31.071C40.1021 30.9244 39.9607 30.851 39.7821 30.851C39.6034 30.851 39.4621 30.9244 39.3581 31.071C39.2541 31.2177 39.2021 31.4217 39.2021 31.683C39.2021 31.947 39.2541 32.1564 39.3581 32.311C39.4621 32.463 39.6034 32.539 39.7821 32.539Z" fill="#858D9D"/>
<path d="M48.276 85.195V84.727H48.536C48.7893 84.727 48.9427 84.6324 48.996 84.443H48.276V84.171L48.572 84.147H48.992C48.9653 84.0644 48.9133 84.007 48.836 83.975C48.7587 83.943 48.6587 83.927 48.536 83.927H48.276V83.459H49.86V83.755H49.332C49.46 83.8457 49.5413 83.9764 49.576 84.147H49.86V84.443H49.58C49.5613 84.6057 49.5093 84.7417 49.424 84.851C49.3387 84.9577 49.2333 85.039 49.108 85.095L49.792 85.999H49.132L48.56 85.195H48.276ZM51.1941 85.999V85.523H51.7461V84.055H51.2701V83.691C51.4087 83.6644 51.5261 83.6324 51.6221 83.595C51.7181 83.5577 51.8114 83.5124 51.9021 83.459H52.3341V85.523H52.8101V85.999H51.1941ZM54.0833 86.047C53.8113 86.047 53.5913 85.9337 53.4233 85.707C53.258 85.4804 53.1753 85.151 53.1753 84.719C53.1753 84.287 53.258 83.9617 53.4233 83.743C53.5913 83.5217 53.8113 83.411 54.0833 83.411C54.3553 83.411 54.574 83.5217 54.7393 83.743C54.9073 83.9617 54.9913 84.287 54.9913 84.719C54.9913 85.151 54.9073 85.4804 54.7393 85.707C54.574 85.9337 54.3553 86.047 54.0833 86.047ZM54.0833 85.591C54.15 85.591 54.21 85.567 54.2633 85.519C54.3167 85.4684 54.358 85.3804 54.3873 85.255C54.4193 85.1297 54.4353 84.951 54.4353 84.719C54.4353 84.487 54.4193 84.3097 54.3873 84.187C54.358 84.0644 54.3167 83.9804 54.2633 83.935C54.21 83.8897 54.15 83.867 54.0833 83.867C54.0193 83.867 53.9607 83.8897 53.9073 83.935C53.854 83.9804 53.8113 84.0644 53.7793 84.187C53.7473 84.3097 53.7313 84.487 53.7313 84.719C53.7313 84.951 53.7473 85.1297 53.7793 85.255C53.8113 85.3804 53.854 85.4684 53.9073 85.519C53.9607 85.567 54.0193 85.591 54.0833 85.591ZM56.1966 86.047C55.9246 86.047 55.7046 85.9337 55.5366 85.707C55.3713 85.4804 55.2886 85.151 55.2886 84.719C55.2886 84.287 55.3713 83.9617 55.5366 83.743C55.7046 83.5217 55.9246 83.411 56.1966 83.411C56.4686 83.411 56.6873 83.5217 56.8526 83.743C57.0206 83.9617 57.1046 84.287 57.1046 84.719C57.1046 85.151 57.0206 85.4804 56.8526 85.707C56.6873 85.9337 56.4686 86.047 56.1966 86.047ZM56.1966 85.591C56.2633 85.591 56.3233 85.567 56.3766 85.519C56.43 85.4684 56.4713 85.3804 56.5006 85.255C56.5326 85.1297 56.5486 84.951 56.5486 84.719C56.5486 84.487 56.5326 84.3097 56.5006 84.187C56.4713 84.0644 56.43 83.9804 56.3766 83.935C56.3233 83.8897 56.2633 83.867 56.1966 83.867C56.1326 83.867 56.074 83.8897 56.0206 83.935C55.9673 83.9804 55.9246 84.0644 55.8926 84.187C55.8606 84.3097 55.8446 84.487 55.8446 84.719C55.8446 84.951 55.8606 85.1297 55.8926 85.255C55.9246 85.3804 55.9673 85.4684 56.0206 85.519C56.074 85.567 56.1326 85.591 56.1966 85.591ZM58.3099 86.047C58.0379 86.047 57.8179 85.9337 57.6499 85.707C57.4846 85.4804 57.4019 85.151 57.4019 84.719C57.4019 84.287 57.4846 83.9617 57.6499 83.743C57.8179 83.5217 58.0379 83.411 58.3099 83.411C58.5819 83.411 58.8006 83.5217 58.9659 83.743C59.1339 83.9617 59.2179 84.287 59.2179 84.719C59.2179 85.151 59.1339 85.4804 58.9659 85.707C58.8006 85.9337 58.5819 86.047 58.3099 86.047ZM58.3099 85.591C58.3766 85.591 58.4366 85.567 58.4899 85.519C58.5432 85.4684 58.5846 85.3804 58.6139 85.255C58.6459 85.1297 58.6619 84.951 58.6619 84.719C58.6619 84.487 58.6459 84.3097 58.6139 84.187C58.5846 84.0644 58.5432 83.9804 58.4899 83.935C58.4366 83.8897 58.3766 83.867 58.3099 83.867C58.2459 83.867 58.1872 83.8897 58.1339 83.935C58.0806 83.9804 58.0379 84.0644 58.0059 84.187C57.9739 84.3097 57.9579 84.487 57.9579 84.719C57.9579 84.951 57.9739 85.1297 58.0059 85.255C58.0379 85.3804 58.0806 85.4684 58.1339 85.519C58.1872 85.567 58.2459 85.591 58.3099 85.591ZM59.9672 86.047C59.8659 86.047 59.7805 86.0124 59.7112 85.943C59.6445 85.871 59.6112 85.783 59.6112 85.679C59.6112 85.5724 59.6445 85.4844 59.7112 85.415C59.7805 85.343 59.8659 85.307 59.9672 85.307C60.0685 85.307 60.1525 85.343 60.2192 85.415C60.2885 85.4844 60.3232 85.5724 60.3232 85.679C60.3232 85.783 60.2885 85.871 60.2192 85.943C60.1525 86.0124 60.0685 86.047 59.9672 86.047ZM61.6224 86.047C61.3504 86.047 61.1304 85.9337 60.9624 85.707C60.7971 85.4804 60.7144 85.151 60.7144 84.719C60.7144 84.287 60.7971 83.9617 60.9624 83.743C61.1304 83.5217 61.3504 83.411 61.6224 83.411C61.8944 83.411 62.1131 83.5217 62.2784 83.743C62.4464 83.9617 62.5304 84.287 62.5304 84.719C62.5304 85.151 62.4464 85.4804 62.2784 85.707C62.1131 85.9337 61.8944 86.047 61.6224 86.047ZM61.6224 85.591C61.6891 85.591 61.7491 85.567 61.8024 85.519C61.8557 85.4684 61.8971 85.3804 61.9264 85.255C61.9584 85.1297 61.9744 84.951 61.9744 84.719C61.9744 84.487 61.9584 84.3097 61.9264 84.187C61.8971 84.0644 61.8557 83.9804 61.8024 83.935C61.7491 83.8897 61.6891 83.867 61.6224 83.867C61.5584 83.867 61.4997 83.8897 61.4464 83.935C61.3931 83.9804 61.3504 84.0644 61.3184 84.187C61.2864 84.3097 61.2704 84.487 61.2704 84.719C61.2704 84.951 61.2864 85.1297 61.3184 85.255C61.3504 85.3804 61.3931 85.4684 61.4464 85.519C61.4997 85.567 61.5584 85.591 61.6224 85.591ZM63.7357 86.047C63.4637 86.047 63.2437 85.9337 63.0757 85.707C62.9104 85.4804 62.8277 85.151 62.8277 84.719C62.8277 84.287 62.9104 83.9617 63.0757 83.743C63.2437 83.5217 63.4637 83.411 63.7357 83.411C64.0077 83.411 64.2264 83.5217 64.3917 83.743C64.5597 83.9617 64.6437 84.287 64.6437 84.719C64.6437 85.151 64.5597 85.4804 64.3917 85.707C64.2264 85.9337 64.0077 86.047 63.7357 86.047ZM63.7357 85.591C63.8024 85.591 63.8624 85.567 63.9157 85.519C63.969 85.4684 64.0104 85.3804 64.0397 85.255C64.0717 85.1297 64.0877 84.951 64.0877 84.719C64.0877 84.487 64.0717 84.3097 64.0397 84.187C64.0104 84.0644 63.969 83.9804 63.9157 83.935C63.8624 83.8897 63.8024 83.867 63.7357 83.867C63.6717 83.867 63.613 83.8897 63.5597 83.935C63.5064 83.9804 63.4637 84.0644 63.4317 84.187C63.3997 84.3097 63.3837 84.487 63.3837 84.719C63.3837 84.951 63.3997 85.1297 63.4317 85.255C63.4637 85.3804 63.5064 85.4684 63.5597 85.519C63.613 85.567 63.6717 85.591 63.7357 85.591Z" fill="#667085"/>
</svg>
