<svg width="708" height="576" viewBox="0 0 708 576" fill="none" xmlns="http://www.w3.org/2000/svg">
<path d="M348.159 259.851H342.412V266.927H348.159V259.851Z" fill="#919191"/>
<path d="M443.667 123.32C439.739 122.596 435.683 123.455 432.386 125.71C429.088 127.966 426.817 131.434 426.069 135.358H426.067L426.066 135.365C425.231 138.983 424.054 142.514 422.551 145.909C421.12 149.234 419.428 152.44 417.49 155.497C415.249 159.043 412.64 162.342 409.706 165.34C406.147 168.984 402.155 172.178 397.82 174.851C392.811 177.933 387.344 180.198 381.623 181.56C377.954 182.445 374.196 182.905 370.422 182.933C369.427 182.933 368.696 182.894 368.288 182.864C368.084 182.849 367.96 182.836 367.924 182.832L367.913 182.831V182.834C363.947 182.335 359.945 183.425 356.782 185.868C353.618 188.311 351.55 191.906 351.03 195.869C350.51 199.832 351.58 203.84 354.006 207.016C356.431 210.192 360.016 212.279 363.976 212.82C366.115 213.08 368.268 213.2 370.422 213.18C374.137 213.171 377.845 212.893 381.519 212.348C389.592 211.154 397.448 208.798 404.845 205.352C420.784 197.851 434.213 185.899 443.511 170.937C447.483 164.535 450.715 157.703 453.144 150.571C454.246 147.424 455.132 144.206 455.795 140.938C456.155 138.985 456.128 136.98 455.713 135.038C455.299 133.095 454.506 131.254 453.38 129.618C452.254 127.982 450.817 126.583 449.15 125.503C447.484 124.423 445.621 123.681 443.667 123.32V123.32Z" fill="#C6C6C6"/>
<path d="M443.621 252.833C440.288 252.824 436.959 252.59 433.657 252.131C423.046 250.61 412.783 247.246 403.33 242.19C403.079 242.055 402.831 241.912 402.587 241.762C389.868 233.615 377.942 224.292 366.966 213.915C364.054 211.157 362.356 207.355 362.247 203.346C362.138 199.336 363.625 195.448 366.383 192.535C369.141 189.623 372.943 187.925 376.953 187.816C380.962 187.706 384.851 189.194 387.763 191.952C397.142 200.783 407.292 208.758 418.09 215.782C424.239 219.016 430.895 221.174 437.77 222.165C444.397 223.074 448.951 222.385 451.003 221.437C452.806 220.604 454.756 220.134 456.74 220.054C458.725 219.975 460.705 220.287 462.569 220.972C464.433 221.658 466.144 222.704 467.603 224.051C469.063 225.398 470.243 227.019 471.076 228.822C471.909 230.625 472.379 232.575 472.458 234.559C472.538 236.544 472.226 238.524 471.54 240.388C470.854 242.252 469.808 243.963 468.461 245.422C467.114 246.882 465.493 248.062 463.69 248.895C457.206 251.89 450.053 252.833 443.621 252.833Z" fill="#ABABAB"/>
<path d="M462.718 240.037C460.931 240.036 459.202 239.403 457.837 238.249C456.472 237.095 455.56 235.495 455.263 233.732C454.965 231.97 455.302 230.159 456.212 228.621C457.123 227.083 458.548 225.917 460.237 225.33L515.426 206.152C516.364 205.824 517.358 205.685 518.35 205.742C519.343 205.799 520.314 206.051 521.209 206.483C522.103 206.916 522.904 207.52 523.565 208.263C524.226 209.005 524.734 209.87 525.06 210.809C525.387 211.748 525.525 212.742 525.466 213.734C525.408 214.726 525.155 215.697 524.721 216.591C524.288 217.486 523.682 218.286 522.939 218.946C522.195 219.605 521.329 220.112 520.39 220.437L465.201 239.616C464.403 239.894 463.564 240.037 462.718 240.037V240.037Z" fill="#E84D4F"/>
<path d="M366.044 212.961C365.739 212.961 365.433 212.952 365.125 212.933C339.412 211.391 318.53 209.469 303.263 200.124C295.408 195.189 288.242 189.234 281.953 182.415C274.153 173.955 269.155 165.715 267.098 157.924C266.592 156.004 266.468 154.003 266.735 152.035C267.001 150.066 267.653 148.17 268.652 146.454C269.652 144.738 270.979 143.235 272.56 142.032C274.14 140.829 275.941 139.949 277.862 139.442C281.74 138.418 285.866 138.977 289.332 140.995C292.798 143.014 295.321 146.327 296.344 150.205C297.832 155.842 308.076 167.606 319.054 174.326C328.325 180.001 346.993 181.545 366.935 182.74C370.861 182.974 374.542 184.727 377.197 187.629C379.851 190.53 381.271 194.352 381.155 198.283C381.04 202.214 379.397 205.945 376.576 208.686C373.755 211.426 369.977 212.959 366.044 212.961H366.044Z" fill="#C6C6C6"/>
<path d="M289.164 247.362C240.045 247.362 203.141 216.836 201.506 215.461C198.441 212.882 196.524 209.192 196.176 205.201C195.829 201.21 197.079 197.244 199.652 194.174C202.225 191.104 205.911 189.18 209.901 188.825C213.891 188.469 217.86 189.712 220.935 192.279C221.309 192.589 254.846 219.972 295.742 216.866C327.808 214.431 336.579 198.93 336.937 198.272C336.869 198.392 336.808 198.516 336.753 198.643L364.132 211.499C363.412 213.032 359.295 221.091 348.896 229.217C335.777 239.468 318.664 245.46 298.033 247.027C295.04 247.254 292.076 247.362 289.164 247.362Z" fill="#ABABAB"/>
<path d="M547.318 191.568C548.284 190.691 549.012 189.584 549.434 188.35C549.856 187.116 549.959 185.795 549.732 184.51C549.506 183.226 548.958 182.019 548.139 181.004C547.321 179.989 546.258 179.197 545.051 178.703C543.844 178.209 542.531 178.029 541.235 178.18C539.94 178.331 538.703 178.807 537.642 179.565C536.58 180.323 535.727 181.337 535.164 182.513C534.6 183.69 534.344 184.99 534.418 186.292L524.004 182.032L510.208 215.759L543.936 229.555L548.501 218.395C547.075 218.815 545.559 218.824 544.129 218.42C542.698 218.017 541.411 217.217 540.415 216.114C539.419 215.011 538.754 213.649 538.498 212.184C538.242 210.72 538.405 209.214 538.968 207.838C539.531 206.462 540.47 205.273 541.679 204.408C542.888 203.543 544.316 203.037 545.8 202.948C547.284 202.859 548.762 203.191 550.066 203.906C551.369 204.621 552.444 205.689 553.167 206.987L557.732 195.828L547.318 191.568Z" fill="#00D639"/>
<path d="M306.612 524.981C303.691 524.981 300.804 524.341 298.157 523.105C295.51 521.869 293.165 520.067 291.29 517.827C289.414 515.587 288.053 512.963 287.301 510.14C286.55 507.316 286.427 504.362 286.94 501.486L324.391 292.919C326.139 283.189 331.412 274.445 339.204 268.36C346.995 262.276 356.756 259.278 366.62 259.941C376.483 260.604 385.755 264.881 392.662 271.953C399.57 279.025 403.626 288.396 404.056 298.273L413.006 504.147C413.223 509.429 411.336 514.58 407.759 518.472C404.183 522.364 399.208 524.679 393.927 524.909C388.646 525.138 383.49 523.264 379.589 519.697C375.688 516.13 373.361 511.162 373.118 505.881L364.167 300.007C364.165 299.948 364.14 299.892 364.099 299.849C364.057 299.807 364.002 299.781 363.942 299.777C363.883 299.773 363.824 299.791 363.778 299.828C363.731 299.865 363.699 299.917 363.689 299.976L326.238 508.543C325.411 513.148 322.992 517.316 319.406 520.32C315.819 523.325 311.291 524.974 306.612 524.981V524.981Z" fill="#5E5E5E"/>
<path d="M365.551 278.652C376.898 278.652 386.097 269.453 386.097 258.106C386.097 246.76 376.898 237.561 365.551 237.561C354.204 237.561 345.006 246.76 345.006 258.106C345.006 269.453 354.204 278.652 365.551 278.652Z" fill="#919191"/>
<path d="M385.587 262.669L345.047 259.432L345.005 204.825L387.068 205.522L385.587 262.669Z" fill="#919191"/>
<path d="M493.812 346.318C492.202 346.319 490.633 345.803 489.338 344.847L419.11 293.195C418.308 292.607 417.629 291.867 417.113 291.017C416.597 290.167 416.254 289.224 416.104 288.241C415.953 287.258 415.997 286.256 416.235 285.29C416.472 284.324 416.897 283.415 417.486 282.614C418.075 281.813 418.817 281.136 419.668 280.622C420.519 280.108 421.463 279.767 422.446 279.618C423.429 279.469 424.432 279.516 425.397 279.755C426.362 279.994 427.271 280.421 428.07 281.012L498.298 332.664C499.582 333.608 500.535 334.934 501.021 336.452C501.506 337.97 501.5 339.602 501.002 341.116C500.505 342.63 499.542 343.949 498.25 344.883C496.959 345.817 495.406 346.319 493.812 346.318V346.318Z" fill="#E84D4F"/>
<path d="M474.919 340.999C472.303 340.999 469.732 340.318 467.46 339.021C465.694 338.017 423.938 314.139 400.844 288.851C380.382 266.446 370.3 231.75 366.112 213.062C366.104 213.031 366.085 213.005 366.06 212.986C366.034 212.967 366.003 212.958 365.971 212.959C361.96 212.952 358.117 211.351 355.286 208.51C352.455 205.668 350.869 201.818 350.876 197.807C350.884 193.796 352.485 189.952 355.326 187.122C358.168 184.291 362.018 182.705 366.029 182.712H366.089C372.98 182.71 379.665 185.062 385.037 189.378C390.409 193.695 394.145 199.717 395.627 206.447C398.471 219.133 406.847 250.57 423.178 268.453C443.024 290.183 482.021 312.505 482.413 312.728C485.314 314.38 487.587 316.945 488.878 320.024C490.169 323.102 490.405 326.522 489.55 329.749C488.695 332.976 486.796 335.829 484.149 337.864C481.503 339.899 478.257 341.001 474.919 340.999V340.999Z" fill="#919191"/>
<path d="M304.645 297.943C301.34 297.945 298.126 296.866 295.493 294.869C292.86 292.872 290.953 290.067 290.065 286.884C289.176 283.701 289.355 280.315 290.573 277.243C291.791 274.171 293.981 271.582 296.81 269.873L309.69 262.09C312.772 260.163 315.22 257.375 316.734 254.07L333.529 205.108C335.777 198.557 340.015 192.872 345.65 188.847C351.286 184.823 358.038 182.659 364.964 182.658C368.975 182.658 372.821 184.252 375.658 187.088C378.494 189.924 380.087 193.771 380.087 197.782C380.087 201.793 378.494 205.639 375.658 208.476C372.821 211.312 368.975 212.905 364.964 212.905C364.342 212.905 363.735 213.1 363.229 213.461C362.723 213.823 362.342 214.333 362.14 214.922L345.134 264.497C345.012 264.853 344.877 265.205 344.728 265.551C340.792 274.768 334.107 282.546 325.587 287.823C325.534 287.857 325.48 287.89 325.425 287.923L312.452 295.761C310.098 297.189 307.398 297.943 304.645 297.943V297.943Z" fill="#919191"/>
<path d="M366.627 173.141C370.872 173.141 374.314 169.699 374.314 165.454C374.314 161.208 370.872 157.766 366.627 157.766C362.381 157.766 358.939 161.208 358.939 165.454C358.939 169.699 362.381 173.141 366.627 173.141Z" fill="#E84D4F"/>
<path d="M315.54 534C314.837 534 314.149 533.795 313.56 533.41L295.248 521.463C294.845 521.204 294.497 520.868 294.224 520.475C293.951 520.081 293.759 519.637 293.659 519.169C293.558 518.7 293.552 518.217 293.639 517.746C293.726 517.275 293.906 516.826 294.168 516.425C294.43 516.024 294.768 515.678 295.164 515.408C295.56 515.139 296.005 514.95 296.474 514.853C296.943 514.756 297.427 514.753 297.897 514.844C298.368 514.935 298.815 515.119 299.214 515.383L317.527 527.33C318.182 527.758 318.682 528.385 318.952 529.12C319.221 529.854 319.246 530.657 319.023 531.406C318.8 532.156 318.34 532.814 317.712 533.282C317.085 533.749 316.323 534.001 315.54 534V534Z" fill="#5E5E5E"/>
<path d="M401.818 533.859C401.115 533.859 400.427 533.654 399.838 533.269L381.526 521.322C381.123 521.063 380.775 520.727 380.502 520.334C380.229 519.94 380.037 519.496 379.937 519.028C379.836 518.559 379.829 518.076 379.917 517.605C380.004 517.134 380.184 516.685 380.446 516.284C380.707 515.882 381.046 515.537 381.442 515.267C381.838 514.998 382.283 514.809 382.752 514.712C383.221 514.615 383.705 514.612 384.175 514.703C384.645 514.794 385.093 514.977 385.492 515.242L403.805 527.189C404.46 527.616 404.96 528.244 405.229 528.979C405.499 529.713 405.524 530.515 405.301 531.265C405.077 532.015 404.618 532.673 403.99 533.14C403.362 533.608 402.601 533.86 401.818 533.859V533.859Z" fill="#5E5E5E"/>
<path d="M441.315 136.503C439.355 136.502 437.473 135.74 436.064 134.378C434.655 133.015 433.83 131.16 433.763 129.201L432.975 106.279C432.906 104.275 433.636 102.325 435.005 100.859C436.373 99.3932 438.268 98.5309 440.272 98.462C442.277 98.3931 444.226 99.1233 445.692 100.492C447.158 101.86 448.02 103.755 448.089 105.76L448.877 128.681C448.911 129.674 448.75 130.663 448.401 131.593C448.053 132.523 447.525 133.376 446.847 134.101C446.17 134.827 445.356 135.413 444.452 135.824C443.548 136.235 442.572 136.464 441.579 136.498C441.491 136.502 441.403 136.503 441.315 136.503Z" fill="#E84D4F"/>
<path d="M281.029 155.657C279.203 155.654 277.439 154.991 276.064 153.79C274.688 152.588 273.794 150.93 273.546 149.121L264.094 80.1223C263.956 79.1369 264.013 78.1338 264.263 77.1706C264.513 76.2074 264.951 75.303 265.551 74.5093C266.152 73.7157 266.903 73.0483 267.762 72.5455C268.62 72.0427 269.57 71.7143 270.556 71.5793C271.542 71.4442 272.545 71.505 273.507 71.7584C274.469 72.0117 275.372 72.4524 276.164 73.0554C276.956 73.6584 277.621 74.4117 278.121 75.2721C278.62 76.1326 278.946 77.0832 279.077 78.0696L288.53 147.068C288.676 148.138 288.591 149.228 288.28 150.262C287.97 151.297 287.442 152.254 286.731 153.067C286.021 153.881 285.144 154.533 284.16 154.98C283.177 155.426 282.109 155.657 281.029 155.657L281.029 155.657Z" fill="#E84D4F"/>
<path d="M204.587 206.37C203.23 206.37 201.897 206.003 200.731 205.308L187.811 197.631C186.955 197.125 186.206 196.455 185.608 195.66C185.011 194.864 184.576 193.959 184.329 192.995C184.082 192.031 184.028 191.028 184.17 190.043C184.311 189.058 184.646 188.111 185.154 187.256C185.662 186.4 186.334 185.654 187.131 185.059C187.929 184.463 188.836 184.031 189.8 183.788C190.765 183.544 191.768 183.492 192.752 183.637C193.737 183.781 194.683 184.119 195.537 184.629L208.457 192.306C209.881 193.153 210.988 194.444 211.608 195.981C212.227 197.518 212.324 199.216 211.885 200.814C211.445 202.412 210.493 203.821 209.174 204.825C207.856 205.828 206.244 206.371 204.587 206.37V206.37Z" fill="#E84D4F"/>
<path d="M509.153 216.445C508.455 216.446 507.779 216.205 507.239 215.764C506.698 215.323 506.327 214.709 506.188 214.025C506.048 213.342 506.149 212.631 506.473 212.014C506.798 211.396 507.325 210.91 507.967 210.637L515.17 207.572C515.536 207.415 515.929 207.331 516.327 207.326C516.725 207.321 517.12 207.395 517.49 207.543C517.86 207.691 518.196 207.911 518.481 208.19C518.765 208.468 518.992 208.8 519.148 209.167C519.304 209.533 519.386 209.927 519.389 210.325C519.393 210.723 519.318 211.118 519.168 211.487C519.018 211.856 518.797 212.192 518.518 212.475C518.238 212.759 517.905 212.984 517.538 213.139L510.335 216.203C509.961 216.363 509.559 216.445 509.153 216.445Z" fill="#E84D4F"/>
<path d="M169.999 202.934C184.358 202.934 195.998 191.294 195.998 176.935C195.998 162.576 184.358 150.936 169.999 150.936C155.64 150.936 144 162.576 144 176.935C144 191.294 155.64 202.934 169.999 202.934Z" fill="#00D639"/>
<path d="M230.155 335.682C228.505 335.684 226.899 335.145 225.584 334.148C224.268 333.152 223.314 331.753 222.868 330.164C222.422 328.575 222.508 326.883 223.113 325.348C223.718 323.812 224.809 322.517 226.219 321.659L293.654 280.643C294.503 280.123 295.445 279.777 296.428 279.622C297.411 279.468 298.414 279.509 299.381 279.743C300.348 279.977 301.259 280.4 302.062 280.987C302.865 281.574 303.545 282.313 304.062 283.163C304.579 284.013 304.923 284.957 305.075 285.94C305.226 286.923 305.183 287.926 304.946 288.892C304.709 289.859 304.284 290.769 303.695 291.57C303.106 292.372 302.364 293.049 301.513 293.564L234.078 334.58C232.897 335.301 231.539 335.682 230.155 335.682Z" fill="#E84D4F"/>
<path d="M193.861 338.925C193.625 338.925 193.394 338.859 193.194 338.733C192.994 338.608 192.833 338.429 192.729 338.217C192.626 338.005 192.585 337.768 192.61 337.533C192.635 337.298 192.725 337.075 192.871 336.89L199.51 328.415C199.612 328.285 199.738 328.176 199.882 328.095C200.026 328.013 200.185 327.961 200.349 327.941C200.513 327.921 200.68 327.934 200.839 327.978C200.998 328.023 201.147 328.098 201.277 328.2C201.408 328.302 201.516 328.429 201.598 328.573C201.679 328.717 201.731 328.875 201.751 329.04C201.771 329.204 201.758 329.37 201.714 329.529C201.669 329.689 201.594 329.838 201.492 329.968L194.853 338.443C194.735 338.593 194.585 338.715 194.413 338.799C194.241 338.882 194.052 338.926 193.861 338.925V338.925Z" fill="#1D1D1B"/>
<path d="M216.343 291.664L173.379 308.717L198.496 371.995L241.46 354.942L216.343 291.664Z" fill="#00D639"/>
<path d="M212.307 303.57L184.481 314.615C183.82 314.877 183.496 315.627 183.759 316.288L184.337 317.744C184.599 318.406 185.348 318.729 186.01 318.467L213.836 307.422C214.497 307.159 214.821 306.41 214.558 305.748L213.98 304.293C213.718 303.631 212.968 303.307 212.307 303.57Z" fill="#F2F5F6"/>
<path d="M216.712 314.67L188.887 325.714C188.73 325.777 188.586 325.87 188.464 325.987C188.343 326.105 188.246 326.246 188.179 326.401C188.112 326.557 188.076 326.724 188.073 326.893C188.071 327.063 188.102 327.231 188.164 327.388L198.104 352.429C198.166 352.587 198.259 352.73 198.377 352.852C198.495 352.973 198.636 353.071 198.791 353.138C198.946 353.205 199.114 353.241 199.283 353.243C199.452 353.246 199.62 353.215 199.778 353.152L227.603 342.108C227.76 342.045 227.904 341.952 228.025 341.834C228.147 341.716 228.244 341.576 228.311 341.42C228.378 341.265 228.414 341.098 228.416 340.928C228.419 340.759 228.388 340.591 228.325 340.434L218.386 315.392C218.323 315.235 218.231 315.091 218.113 314.97C217.995 314.848 217.854 314.751 217.699 314.684C217.543 314.617 217.376 314.581 217.207 314.579C217.038 314.576 216.869 314.607 216.712 314.67ZM199.793 327.231C199.73 327.073 199.7 326.905 199.702 326.736C199.705 326.567 199.741 326.4 199.808 326.244C199.875 326.089 199.972 325.948 200.094 325.83C200.215 325.713 200.359 325.62 200.516 325.558L201.205 325.284C201.522 325.158 201.877 325.163 202.191 325.298C202.505 325.434 202.752 325.688 202.878 326.006L203.152 326.695C203.278 327.013 203.273 327.368 203.137 327.682C203.001 327.995 202.747 328.242 202.429 328.368L201.74 328.642C201.583 328.704 201.415 328.735 201.246 328.733C201.076 328.73 200.909 328.695 200.754 328.628C200.599 328.561 200.458 328.464 200.34 328.342C200.222 328.221 200.129 328.077 200.067 327.92L199.793 327.231ZM193.545 329.71C193.419 329.393 193.424 329.038 193.56 328.724C193.695 328.41 193.95 328.163 194.267 328.037C194.585 327.911 194.94 327.916 195.254 328.052C195.567 328.187 195.815 328.442 195.941 328.76L196.214 329.449C196.277 329.606 196.308 329.775 196.305 329.944C196.303 330.113 196.267 330.28 196.2 330.435C196.133 330.591 196.036 330.731 195.914 330.849C195.793 330.967 195.649 331.06 195.492 331.122C195.335 331.185 195.167 331.216 194.998 331.213C194.828 331.211 194.661 331.175 194.506 331.108C194.351 331.041 194.21 330.944 194.092 330.822C193.974 330.701 193.881 330.557 193.819 330.4L193.545 329.71ZM202.547 334.168C202.484 334.011 202.453 333.843 202.456 333.673C202.458 333.504 202.494 333.337 202.561 333.181C202.628 333.026 202.725 332.885 202.847 332.767C202.968 332.649 203.112 332.557 203.269 332.494L203.958 332.221C204.276 332.095 204.631 332.1 204.945 332.235C205.259 332.371 205.506 332.626 205.632 332.943L205.905 333.632C206.032 333.95 206.026 334.305 205.891 334.619C205.755 334.933 205.501 335.18 205.183 335.306L204.494 335.58C204.337 335.642 204.168 335.673 203.999 335.671C203.83 335.668 203.663 335.632 203.507 335.565C203.352 335.498 203.211 335.401 203.093 335.279C202.975 335.158 202.883 335.014 202.82 334.857L202.547 334.168ZM202.823 346.097C202.949 346.415 202.944 346.77 202.808 347.084C202.673 347.397 202.418 347.645 202.1 347.771C201.783 347.897 201.428 347.892 201.114 347.756C200.8 347.621 200.553 347.366 200.427 347.048L199.052 343.585C198.926 343.267 198.931 342.912 199.067 342.598C199.202 342.285 199.457 342.037 199.775 341.911C200.092 341.785 200.447 341.79 200.761 341.926C201.075 342.061 201.322 342.316 201.448 342.634L202.823 346.097ZM198.968 336.386C199.03 336.543 199.061 336.711 199.059 336.881C199.056 337.05 199.02 337.217 198.953 337.372C198.886 337.528 198.789 337.668 198.668 337.786C198.546 337.904 198.403 337.997 198.246 338.059C198.088 338.122 197.92 338.152 197.751 338.15C197.582 338.147 197.415 338.112 197.259 338.045C197.104 337.978 196.963 337.88 196.846 337.759C196.728 337.638 196.635 337.494 196.572 337.337L196.299 336.648C196.237 336.491 196.206 336.323 196.208 336.153C196.211 335.984 196.246 335.817 196.314 335.662C196.381 335.506 196.478 335.366 196.599 335.248C196.721 335.13 196.864 335.037 197.021 334.975C197.179 334.912 197.347 334.881 197.516 334.884C197.685 334.886 197.852 334.922 198.007 334.989C198.163 335.056 198.304 335.153 198.421 335.275C198.539 335.396 198.632 335.54 198.695 335.697L198.968 336.386ZM209.76 343.344C209.886 343.662 209.881 344.016 209.745 344.33C209.61 344.644 209.355 344.891 209.037 345.018L208.349 345.291C208.191 345.354 208.023 345.385 207.854 345.382C207.684 345.38 207.517 345.344 207.362 345.277C207.206 345.21 207.066 345.113 206.948 344.991C206.83 344.869 206.737 344.726 206.675 344.568L205.3 341.105C205.174 340.787 205.179 340.432 205.315 340.118C205.45 339.804 205.705 339.557 206.022 339.431L206.711 339.157C207.029 339.031 207.384 339.037 207.698 339.172C208.012 339.308 208.259 339.562 208.385 339.88L209.76 343.344ZM222.944 338.111C223.007 338.268 223.038 338.436 223.035 338.605C223.033 338.775 222.997 338.942 222.93 339.097C222.863 339.253 222.766 339.393 222.644 339.511C222.523 339.629 222.379 339.722 222.222 339.784L215.285 342.538C215.128 342.6 214.96 342.631 214.791 342.629C214.621 342.626 214.454 342.59 214.299 342.523C214.143 342.456 214.003 342.359 213.885 342.238C213.767 342.116 213.674 341.973 213.612 341.815L212.237 338.351C212.227 338.327 212.218 338.302 212.21 338.277C212.108 337.965 212.128 337.626 212.267 337.329C212.407 337.031 212.654 336.799 212.959 336.678L219.896 333.924C220.214 333.798 220.568 333.803 220.882 333.939C221.196 334.074 221.443 334.329 221.57 334.647L222.944 338.111ZM219.09 328.399C219.152 328.556 219.183 328.725 219.181 328.894C219.178 329.063 219.142 329.23 219.075 329.386C219.008 329.541 218.911 329.682 218.79 329.8C218.668 329.918 218.525 330.011 218.367 330.073L211.43 332.826C211.273 332.889 211.105 332.92 210.936 332.917C210.766 332.915 210.599 332.879 210.444 332.812C210.288 332.745 210.148 332.648 210.03 332.526C209.912 332.405 209.819 332.261 209.757 332.104L209.483 331.415C209.421 331.257 209.39 331.089 209.392 330.92C209.395 330.751 209.43 330.583 209.498 330.428C209.565 330.273 209.662 330.132 209.783 330.014C209.905 329.896 210.048 329.803 210.206 329.741L217.142 326.988C217.3 326.925 217.468 326.894 217.637 326.897C217.806 326.899 217.974 326.935 218.129 327.002C218.285 327.069 218.425 327.166 218.543 327.288C218.661 327.409 218.754 327.553 218.816 327.71L219.09 328.399ZM216.336 321.462C216.399 321.62 216.43 321.788 216.427 321.957C216.424 322.126 216.389 322.293 216.321 322.449C216.254 322.604 216.157 322.745 216.036 322.862C215.914 322.98 215.771 323.073 215.613 323.135L208.677 325.889C208.519 325.951 208.351 325.982 208.182 325.98C208.013 325.977 207.846 325.942 207.691 325.875C207.535 325.807 207.394 325.711 207.277 325.589C207.159 325.468 207.066 325.324 207.003 325.167L206.729 324.477C206.667 324.32 206.636 324.152 206.639 323.983C206.641 323.814 206.677 323.646 206.744 323.491C206.811 323.336 206.909 323.195 207.03 323.077C207.152 322.96 207.295 322.867 207.452 322.804L214.389 320.051C214.546 319.988 214.714 319.958 214.884 319.96C215.053 319.962 215.22 319.998 215.375 320.065C215.531 320.132 215.671 320.229 215.789 320.351C215.907 320.472 216 320.615 216.063 320.773L216.336 321.462Z" fill="#F2F5F6"/>
<path d="M228.828 345.192L216.554 350.064C215.892 350.327 215.568 351.076 215.831 351.738L216.409 353.193C216.671 353.855 217.421 354.178 218.082 353.916L230.357 349.044C231.019 348.781 231.342 348.032 231.079 347.37L230.502 345.914C230.239 345.253 229.49 344.929 228.828 345.192Z" fill="#F2F5F6"/>
<path d="M199.399 315.118L186.684 320.165C186.023 320.427 185.699 321.177 185.962 321.838L186.54 323.294C186.802 323.955 187.552 324.279 188.213 324.016L200.928 318.97C201.59 318.707 201.913 317.958 201.65 317.296L201.073 315.84C200.81 315.179 200.061 314.855 199.399 315.118Z" fill="#F2F5F6"/>
<path d="M219.946 333.903L212.908 336.697C212.275 336.948 211.965 337.666 212.216 338.3L213.631 341.865C213.883 342.499 214.601 342.809 215.235 342.557L222.272 339.764C222.906 339.512 223.216 338.794 222.964 338.16L221.549 334.595C221.298 333.962 220.58 333.652 219.946 333.903Z" fill="#00D639"/>
<path d="M284.138 50.1909L267.006 42L251.346 52.7413L252.818 71.6742L269.951 79.8657L285.611 69.1237L284.138 50.1909Z" fill="#00D639"/>
<path d="M267.066 83.5423C266.516 83.5427 265.977 83.3935 265.506 83.1106C265.035 82.8276 264.65 82.4217 264.392 81.9364L260.719 75.0239C260.528 74.6728 260.409 74.2875 260.368 73.8901C260.328 73.4928 260.366 73.0913 260.481 72.7088C260.596 72.3263 260.786 71.9704 261.039 71.6616C261.293 71.3529 261.605 71.0974 261.958 70.9099C262.31 70.7225 262.697 70.6067 263.095 70.5694C263.492 70.5321 263.893 70.5739 264.275 70.6924C264.656 70.811 265.011 71.0039 265.317 71.2601C265.624 71.5162 265.876 71.8306 266.061 72.185L269.734 79.0973C269.979 79.5581 270.1 80.0743 270.086 80.5957C270.073 81.1172 269.924 81.6263 269.656 82.0736C269.387 82.5209 269.008 82.8911 268.554 83.1484C268.1 83.4057 267.587 83.5413 267.066 83.542L267.066 83.5423Z" fill="#E84D4F"/>
<path d="M192.586 196.672C192.037 196.673 191.498 196.523 191.027 196.24C190.556 195.958 190.171 195.552 189.913 195.066L186.24 188.154C186.048 187.803 185.929 187.417 185.887 187.019C185.846 186.622 185.884 186.22 185.999 185.837C186.114 185.454 186.304 185.098 186.557 184.788C186.811 184.479 187.123 184.224 187.476 184.036C187.829 183.848 188.216 183.732 188.614 183.695C189.012 183.658 189.414 183.7 189.796 183.819C190.177 183.938 190.532 184.131 190.838 184.388C191.145 184.645 191.397 184.96 191.581 185.315L195.255 192.227C195.499 192.688 195.621 193.204 195.607 193.726C195.593 194.247 195.445 194.756 195.176 195.204C194.908 195.651 194.528 196.021 194.075 196.278C193.621 196.536 193.108 196.671 192.586 196.672L192.586 196.672Z" fill="#E84D4F"/>
<path d="M224.858 329.844C224.168 329.844 223.498 329.608 222.96 329.175C222.422 328.742 222.048 328.138 221.901 327.463C221.754 326.788 221.843 326.083 222.152 325.465C222.461 324.848 222.972 324.354 223.6 324.067L230.72 320.815C231.082 320.649 231.473 320.555 231.87 320.54C232.268 320.525 232.665 320.589 233.038 320.727C233.411 320.866 233.753 321.076 234.045 321.347C234.336 321.618 234.571 321.944 234.737 322.306C234.902 322.668 234.994 323.059 235.008 323.457C235.022 323.855 234.957 324.251 234.818 324.624C234.678 324.997 234.466 325.338 234.194 325.629C233.923 325.92 233.596 326.154 233.233 326.318L226.113 329.57C225.72 329.75 225.292 329.844 224.858 329.844Z" fill="#E84D4F"/>
<path d="M541.591 379.115L557.096 344.169C557.448 343.375 557.09 342.446 556.296 342.094L504.626 319.168C503.832 318.816 502.903 319.174 502.551 319.968L487.046 354.913C486.694 355.707 487.052 356.636 487.845 356.988L539.516 379.914C540.31 380.266 541.239 379.908 541.591 379.115Z" fill="#00D639"/>
<path d="M546.93 381.484L562.436 346.538C562.788 345.744 562.43 344.816 561.636 344.463L509.965 321.538C509.172 321.185 508.243 321.543 507.891 322.337L492.386 357.283C492.033 358.076 492.391 359.005 493.185 359.357L544.856 382.283C545.65 382.635 546.578 382.277 546.93 381.484Z" fill="#00D639"/>
<path d="M515.085 361.108L515.085 361.108C515.766 359.574 515.074 357.779 513.54 357.098L497.466 349.967C495.932 349.286 494.137 349.978 493.456 351.512L493.456 351.512C492.775 353.046 493.467 354.842 495.001 355.522L511.075 362.654C512.609 363.334 514.404 362.643 515.085 361.108Z" fill="#5E5E5E"/>
<path d="M539.103 374.808L552.227 345.229C552.454 344.716 552.223 344.115 551.709 343.887L546.624 341.631C546.111 341.403 545.51 341.634 545.282 342.148L532.158 371.726C531.93 372.24 532.162 372.841 532.676 373.069L537.761 375.325C538.274 375.553 538.875 375.321 539.103 374.808Z" fill="black"/>
<path d="M537.959 345.267C539.493 345.948 541.289 345.256 541.97 343.722C542.65 342.188 541.958 340.392 540.424 339.711C538.89 339.031 537.095 339.722 536.414 341.257C535.733 342.791 536.425 344.586 537.959 345.267Z" fill="#5E5E5E"/>
<path d="M534.337 353.432C535.871 354.112 537.666 353.42 538.347 351.886C539.028 350.352 538.336 348.557 536.802 347.876C535.268 347.195 533.472 347.887 532.791 349.421C532.111 350.955 532.803 352.751 534.337 353.432Z" fill="#5E5E5E"/>
<path d="M527.092 369.76C528.626 370.441 530.421 369.749 531.102 368.215C531.783 366.681 531.091 364.885 529.557 364.205C528.022 363.524 526.227 364.216 525.546 365.75C524.866 367.284 525.557 369.079 527.092 369.76Z" fill="#5E5E5E"/>
<path d="M530.714 361.596C532.248 362.277 534.044 361.585 534.725 360.051C535.405 358.517 534.713 356.721 533.179 356.04C531.645 355.36 529.85 356.052 529.169 357.586C528.488 359.12 529.18 360.915 530.714 361.596Z" fill="#5E5E5E"/>
<path d="M529.951 341.714C531.485 342.395 533.28 341.703 533.961 340.169C534.642 338.635 533.95 336.839 532.416 336.159C530.881 335.478 529.086 336.17 528.405 337.704C527.725 339.238 528.416 341.034 529.951 341.714Z" fill="#F2F5F6"/>
<path d="M526.328 349.878C527.862 350.559 529.658 349.867 530.338 348.333C531.019 346.799 530.327 345.003 528.793 344.323C527.259 343.642 525.463 344.334 524.783 345.868C524.102 347.402 524.794 349.198 526.328 349.878Z" fill="#F2F5F6"/>
<path d="M522.706 358.042C524.24 358.723 526.036 358.031 526.716 356.497C527.397 354.963 526.705 353.167 525.171 352.487C523.637 351.806 521.841 352.498 521.161 354.032C520.48 355.566 521.172 357.362 522.706 358.042Z" fill="#F2F5F6"/>
<path d="M519.083 366.207C520.617 366.888 522.412 366.196 523.093 364.662C523.774 363.127 523.082 361.332 521.548 360.651C520.014 359.971 518.218 360.662 517.538 362.197C516.857 363.731 517.549 365.526 519.083 366.207Z" fill="#5E5E5E"/>
<path d="M521.942 338.16C523.476 338.841 525.272 338.149 525.953 336.615C526.633 335.081 525.941 333.285 524.407 332.604C522.873 331.924 521.078 332.616 520.397 334.15C519.716 335.684 520.408 337.479 521.942 338.16Z" fill="#F2F5F6"/>
<path d="M518.32 346.325C519.854 347.005 521.649 346.313 522.33 344.779C523.011 343.245 522.319 341.45 520.785 340.769C519.251 340.088 517.455 340.78 516.774 342.314C516.094 343.848 516.786 345.644 518.32 346.325Z" fill="#F2F5F6"/>
<path d="M514.697 354.489C516.231 355.17 518.027 354.478 518.707 352.944C519.388 351.41 518.696 349.614 517.162 348.934C515.628 348.253 513.832 348.945 513.152 350.479C512.471 352.013 513.163 353.808 514.697 354.489Z" fill="#F2F5F6"/>
<path d="M513.933 334.607C515.468 335.288 517.263 334.596 517.944 333.062C518.624 331.528 517.933 329.732 516.398 329.052C514.864 328.371 513.069 329.063 512.388 330.597C511.707 332.131 512.399 333.927 513.933 334.607Z" fill="#F2F5F6"/>
<path d="M510.311 342.771C511.845 343.452 513.641 342.76 514.321 341.226C515.002 339.692 514.31 337.896 512.776 337.216C511.242 336.535 509.446 337.227 508.766 338.761C508.085 340.295 508.777 342.091 510.311 342.771Z" fill="#F2F5F6"/>
<path d="M506.633 350.912C508.167 351.592 509.962 350.9 510.643 349.366C511.324 347.832 510.632 346.037 509.098 345.356C507.564 344.675 505.768 345.367 505.087 346.901C504.407 348.435 505.099 350.231 506.633 350.912Z" fill="#F2F5F6"/>
<path d="M505.869 331.029C507.403 331.709 509.199 331.018 509.879 329.483C510.56 327.949 509.868 326.154 508.334 325.473C506.8 324.792 505.004 325.484 504.324 327.018C503.643 328.553 504.335 330.348 505.869 331.029Z" fill="#F2F5F6"/>
<path d="M502.246 339.193C503.781 339.874 505.576 339.182 506.257 337.648C506.937 336.114 506.246 334.318 504.711 333.638C503.177 332.957 501.382 333.649 500.701 335.183C500.02 336.717 500.712 338.513 502.246 339.193Z" fill="#F2F5F6"/>
<path d="M498.624 347.358C500.158 348.039 501.953 347.347 502.634 345.813C503.315 344.279 502.623 342.483 501.089 341.803C499.555 341.122 497.759 341.814 497.079 343.348C496.398 344.882 497.09 346.678 498.624 347.358Z" fill="#F2F5F6"/>
<path d="M543.971 377.482L544.609 376.044C544.732 375.768 544.607 375.444 544.331 375.321L542.893 374.683C542.617 374.561 542.293 374.685 542.17 374.962L541.532 376.4C541.41 376.676 541.534 377 541.811 377.122L543.249 377.76C543.525 377.883 543.849 377.758 543.971 377.482Z" fill="#F2F5F6"/>
<path d="M545.522 373.987L546.16 372.549C546.282 372.273 546.158 371.949 545.881 371.827L544.443 371.189C544.167 371.066 543.843 371.191 543.721 371.467L543.083 372.905C542.96 373.182 543.085 373.505 543.361 373.628L544.799 374.266C545.075 374.389 545.399 374.264 545.522 373.987Z" fill="#F2F5F6"/>
<path d="M547.082 370.471L547.72 369.033C547.843 368.757 547.718 368.433 547.442 368.311L546.004 367.673C545.727 367.55 545.404 367.675 545.281 367.951L544.643 369.389C544.52 369.665 544.645 369.989 544.922 370.112L546.359 370.75C546.636 370.872 546.96 370.748 547.082 370.471Z" fill="#F2F5F6"/>
<path d="M548.643 366.955L549.281 365.517C549.403 365.24 549.279 364.917 549.002 364.794L547.564 364.156C547.288 364.033 546.964 364.158 546.842 364.435L546.204 365.872C546.081 366.149 546.206 366.472 546.482 366.595L547.92 367.233C548.197 367.356 548.52 367.231 548.643 366.955Z" fill="#F2F5F6"/>
<path d="M500.143 342.925C499.745 342.925 499.351 342.847 498.983 342.695C498.616 342.542 498.282 342.319 498.001 342.037L492.472 336.495C491.905 335.927 491.587 335.158 491.588 334.355C491.589 333.553 491.909 332.784 492.477 332.218C493.045 331.651 493.814 331.333 494.617 331.334C495.419 331.335 496.188 331.654 496.754 332.222L502.284 337.764C502.706 338.187 502.993 338.726 503.11 339.312C503.226 339.899 503.165 340.507 502.936 341.059C502.707 341.611 502.319 342.083 501.822 342.415C501.325 342.748 500.74 342.925 500.142 342.925H500.143Z" fill="#E84D4F"/>
</svg>
